<svg width="58" height="59" xmlns="http://www.w3.org/2000/svg" xmlns:xlink="http://www.w3.org/1999/xlink" xml:space="preserve" overflow="hidden"><g transform="translate(-58 -177)"><g><g><g><g><path d="M109.101 199.452C108.662 199.729 108.158 199.885 107.64 199.903 107.123 199.981 106.66 200.117 106.173 200.212 105.773 200.345 105.354 200.411 104.933 200.408 104.493 200.301 104.303 199.737 103.876 199.559 104.173 199.339 104.244 199.215 104.054 198.888 103.745 198.502 103.39 198.155 102.997 197.855 102.463 197.368 101.762 197.261 101.518 196.531 101.451 196.182 101.341 195.843 101.192 195.522 101.002 195.201 100.669 195.07 100.456 194.803 100.016 194.251 100.272 193.384 99.9806 192.743 99.8203 192.387 99.5531 192.286 99.3156 192.012 99.0781 191.739 99.1197 191.52 99.0247 191.169 98.7101 190.391 98.339 189.637 97.9144 188.913 97.7659 188.575 96.8634 187.512 97.0356 187.132 97.1544 186.865 97.4453 187.482 97.5344 187.625 97.7184 187.939 97.7838 188.296 98.2172 188.331 98.0276 187.747 97.871 187.152 97.7481 186.55 97.6294 186.022 97.6709 186.134 97.1544 186.057 96.9228 186.016 96.7269 185.873 96.5013 185.82 95.9491 185.695 95.6106 185.968 95.1178 186.117 94.6436 186.205 94.1536 186.143 93.7166 185.938 92.8497 185.665 91.8938 185.683 91.0803 185.25 90.635 185.006 90.4866 184.697 89.8928 184.763 89.4891 184.81 88.8716 185.072 88.7825 185.517 88.6934 185.962 89.0497 186.217 88.5391 186.526 88.0284 186.835 87.5356 186.247 87.0369 186.087 86.6569 185.962 86.1997 186.01 85.8909 185.731 85.7128 185.576 85.7425 185.327 85.5881 185.167 85.3167 184.997 85.0137 184.884 84.6975 184.834 84.2843 184.816 83.8733 184.764 83.4684 184.68 83.1716 184.561 82.2394 184.205 82.2156 183.86 82.1919 183.516 82.9163 183.356 82.8094 182.827 82.8094 182.691 82.4353 182.429 82.4472 182.281 82.4591 182.133 82.8509 181.996 82.7381 181.717 82.2809 181.859 82.2038 181.456 81.7169 181.503 81.5981 181.503 81.3072 181.699 81.2003 181.723 80.9261 181.754 80.6493 181.754 80.375 181.723 80.0456 181.742 79.7181 181.785 79.3953 181.853 79.1264 181.866 78.857 181.844 78.5938 181.788 78.0144 181.805 77.4388 181.886 76.8778 182.032 76.3896 182.13 75.9191 182.302 75.4825 182.542 75.1263 182.697 74.7878 182.958 74.4375 183.088 73.9298 183.151 73.4158 183.139 72.9116 183.053 72.7303 183.074 72.5466 183.05 72.3772 182.982 72.1456 182.875 72.0625 182.53 71.7834 182.631 71.5044 182.732 71.3559 183.522 71.1897 183.742 70.9101 184.031 70.5721 184.258 70.1981 184.407 69.8317 184.637 69.5503 184.981 69.3966 185.386 69.2948 185.514 69.2127 185.656 69.1531 185.808 69.0403 186.194 69.2719 186.526 69.1531 186.912 69.0344 187.298 68.4169 187.773 68.0488 188.023 67.6806 188.272 67.17 188.278 66.8613 188.658 66.7069 188.854 66.6891 189.097 66.505 189.293 66.3209 189.489 66.1963 189.447 66.0953 189.572 65.9112 189.804 65.9112 190.166 65.7866 190.403 65.6124 190.691 65.4137 190.963 65.1928 191.217 64.8382 191.662 64.5575 192.161 64.3616 192.695 64.3022 193.022 64.4625 193.147 64.5991 193.408 64.731 193.619 64.7933 193.866 64.7772 194.114 64.8676 194.576 64.9193 195.045 64.9316 195.516 64.7965 196.128 64.5975 196.726 64.3378 197.297 64.1953 197.718 64.3853 197.612 64.51 198.027 64.5931 198.318 64.4744 198.449 64.51 198.74 64.5813 199.387 64.9791 199.221 65.3294 199.512 65.4659 199.63 65.6559 200.004 65.7925 200.153 66.2114 200.506 66.5651 200.93 66.8375 201.406 66.966 201.889 67.263 202.31 67.6747 202.593 68.0903 202.872 68.5119 203.139 68.9097 203.448 69.2497 203.77 69.6335 204.042 70.0497 204.256 70.7147 204.529 71.1838 204.125 71.8309 203.965 72.4319 203.819 73.0588 203.819 73.6597 203.965 74.1206 204.096 74.615 204.036 75.0312 203.798 75.9278 203.424 77.4359 202.688 78.4334 203.056 78.9856 203.264 78.9856 203.745 79.2825 204.131 79.5794 204.517 79.7456 204.392 80.1375 204.357 80.4118 204.3 80.6894 204.26 80.9688 204.238 81.4734 204.238 81.1766 204.268 81.5625 204.487 82.1562 204.855 82.2156 205.33 82.0791 206.019 82.0444 206.496 81.9669 206.969 81.8475 207.432 81.6338 207.937 81.4437 207.907 81.7822 208.459 82.1023 208.944 82.4747 209.392 82.8925 209.795 83.3205 210.24 83.6308 210.785 83.795 211.381 83.9494 211.826 84.4244 212.384 84.4362 212.853 84.4362 213.031 84.2937 213.203 84.2937 213.328 84.3221 213.593 84.4029 213.849 84.5312 214.082 84.8078 214.521 84.8078 215.08 84.5312 215.519 84.1723 215.97 83.8951 216.481 83.7119 217.027 83.4091 218.102 83.1775 218.969 83.795 219.996 84.1097 220.501 84.3887 221.035 84.65 221.552 84.9754 222.11 85.157 222.74 85.1784 223.386 85.2141 223.814 85.3625 224.217 85.4219 224.639 85.4892 225.146 85.6418 225.638 85.8731 226.094 86.1106 226.515 86.5381 226.765 86.7578 227.198 86.9775 227.632 87.2388 228.273 87.4941 228.795 87.6009 229.021 87.7494 229.146 87.7375 229.425 87.7375 229.549 87.4881 229.888 87.4941 229.971 87.6123 230.4 87.8824 230.771 88.2541 231.016 88.9547 231.473 89.7681 230.838 90.5459 230.719 91.0566 230.642 91.5731 230.838 92.0719 230.719 92.5637 230.629 93.0437 230.484 93.5028 230.286 94.4862 229.736 95.3058 228.935 95.8778 227.964 96.4181 227.05 97.3622 226.474 97.2731 225.268 97.2731 224.948 97.0891 224.918 97.2731 224.603 97.4097 224.402 97.8016 224.283 98.0094 224.188 98.52 223.968 98.8406 223.921 98.9475 223.327 99.0312 222.666 98.9326 221.994 98.6625 221.385 98.5378 221.029 98.3953 220.982 98.5675 220.607 98.7397 220.233 99.2087 220.091 99.47 219.871 99.8065 219.508 100.181 219.182 100.586 218.897 101.127 218.711 101.62 218.407 102.029 218.007 102.516 217.413 102.421 217.081 102.332 216.38 102.255 215.786 102.492 214.919 102.249 214.373 102.005 213.827 101.655 213.56 101.542 212.907 101.507 212.633 101.679 212.152 101.619 211.945 101.56 211.737 101.233 211.606 101.21 211.244 101.174 210.733 101.803 209.718 102.065 209.303 102.392 208.913 102.745 208.546 103.122 208.204 103.533 207.667 103.983 207.161 104.469 206.69 104.98 206.245 105.592 205.954 106.108 205.503 107.015 204.693 107.754 203.712 108.281 202.617 108.655 202.039 108.973 201.426 109.231 200.788 109.243 200.663 109.54 199.09 109.101 199.452ZM96.1569 213.031C96.0144 213.251 95.1712 211.903 95.0762 211.731 94.8119 211.07 94.7398 210.347 94.8684 209.647 95.2128 210.241 95.1831 211.007 95.4622 211.547 95.5809 211.802 96.3706 212.705 96.1569 213.031ZM97.8491 208.471C97.76 208.762 97.9441 208.923 97.5344 208.976 97.2336 209.025 96.9267 209.025 96.6259 208.976 96.3647 208.822 96.5488 207.818 96.6259 207.616 96.7862 207.248 96.9881 207.266 97.3147 207.177 97.8669 207.028 98.0272 207.29 98.5437 207.45 98.2262 207.723 97.9865 208.076 97.8491 208.471ZM98.14 215.596C98.0925 215.003 98.0747 214.302 98.0747 213.702 98.4903 213.702 98.6684 214.747 98.7159 215.056 98.7634 215.365 98.6031 215.65 98.6387 215.929 98.6744 216.208 98.8763 216.481 98.8466 216.736 98.3181 216.778 98.1875 216.119 98.14 215.614Z" fill="#333F50" fill-rule="nonzero" fill-opacity="1"/><path d="M107.747 216.285C107.472 216.721 107.143 217.12 106.767 217.473 106.341 217.716 105.892 217.915 105.425 218.066 104.911 218.331 104.637 218.907 104.754 219.473 104.869 219.816 104.952 220.167 105.004 220.524 104.932 220.872 104.782 221.199 104.564 221.48 104.131 222.234 104.398 222.585 104.505 223.374 104.612 224.164 104.903 224.259 105.532 224.562 106.162 224.348 106.625 224.301 106.886 223.659 107.147 223.018 107.361 222.175 107.592 221.445 107.876 220.74 108.106 220.016 108.281 219.277 108.364 218.719 108.388 218.191 108.477 217.645L108.875 217.781C108.948 217.094 108.804 216.401 108.465 215.798 107.949 215.181 107.996 215.929 107.747 216.285Z" fill="#333F50" fill-rule="nonzero" fill-opacity="1"/></g></g></g></g></g></svg>