<svg width="197" height="202" xmlns="http://www.w3.org/2000/svg" xmlns:xlink="http://www.w3.org/1999/xlink" xml:space="preserve" overflow="hidden"><g transform="translate(-201 -609)"><g><g><g><g><path d="M171.397 73.389C169.897 74.3362 168.173 74.869 166.4 74.9328 164.633 75.1968 163.048 75.664 161.383 75.989 160.014 76.4436 158.58 76.6701 157.137 76.6593 155.634 76.2937 154.984 74.364 153.522 73.7547 154.537 73.0031 154.781 72.5765 154.131 71.4593 153.076 70.137 151.862 68.9497 150.516 67.925 148.687 66.2593 146.291 65.8937 145.458 63.3953 145.227 62.2029 144.852 61.0435 144.341 59.9422 143.691 58.8453 142.553 58.3984 141.822 57.4843 140.319 55.5953 141.192 52.6297 140.197 50.4359 139.648 49.2172 138.734 48.8719 137.922 47.9375 137.109 47.0031 137.251 46.2515 136.926 45.0531 135.85 42.3909 134.581 39.8113 133.128 37.3344 132.62 36.1765 129.533 32.5406 130.122 31.2406 130.528 30.3265 131.523 32.439 131.828 32.9265 132.458 34.0031 132.681 35.2219 134.164 35.3437 133.515 33.3442 132.98 31.3097 132.559 29.25 132.153 27.4422 132.295 27.8281 130.528 27.564 129.736 27.4219 129.066 26.9344 128.294 26.7516 126.405 26.325 125.247 27.2594 123.561 27.7672 121.939 28.0696 120.262 27.8565 118.767 27.1578 115.802 26.2234 112.531 26.2844 109.748 24.8016 108.225 23.9687 107.717 22.9125 105.686 23.1359 104.305 23.2984 102.192 24.1922 101.887 25.7156 101.583 27.239 102.802 28.1125 101.055 29.1687 99.3078 30.225 97.6218 28.2141 95.9156 27.6656 94.6156 27.239 93.0515 27.4015 91.9953 26.4469 91.3859 25.9187 91.4875 25.0656 90.9593 24.5172 90.0306 23.9364 88.9943 23.5497 87.9125 23.3797 86.4989 23.3165 85.0929 23.14 83.7078 22.8516 82.6921 22.4453 79.5031 21.2266 79.4218 20.0484 79.3406 18.8703 81.8187 18.3219 81.4531 16.5141 81.4531 16.0469 80.1734 15.1531 80.214 14.6453 80.2546 14.1375 81.5953 13.6703 81.2093 12.7156 79.6453 13.2031 79.3812 11.8219 77.7156 11.9844 77.3093 11.9844 76.314 12.6547 75.9484 12.7359 75.0102 12.8418 74.0632 12.8418 73.125 12.7359 71.9982 12.8009 70.8778 12.9502 69.7734 13.1828 68.8534 13.2273 67.9317 13.1522 67.0312 12.9594 65.0493 13.0157 63.0802 13.2951 61.1609 13.7922 59.4906 14.1299 57.8813 14.7189 56.3875 15.5391 55.1687 16.0672 54.0109 16.9609 52.8125 17.4078 51.0758 17.6203 49.3171 17.5793 47.5922 17.2859 46.972 17.3587 46.3436 17.2749 45.764 17.0422 44.9719 16.6766 44.6875 15.4984 43.7328 15.8437 42.7781 16.1891 42.2703 18.8906 41.7015 19.6422 40.7452 20.633 39.5888 21.4086 38.3094 21.9172 37.0557 22.7071 36.0933 23.8834 35.5672 25.2687 35.219 25.7051 34.9383 26.1913 34.7344 26.7109 34.3484 28.0312 35.1406 29.1687 34.7344 30.489 34.3281 31.8094 32.2156 33.4344 30.9562 34.2875 29.6969 35.1406 27.95 35.1609 26.8937 36.4609 26.3656 37.1312 26.3047 37.964 25.675 38.6344 25.0453 39.3047 24.6187 39.1625 24.2734 39.589 23.6437 40.3812 23.6437 41.6203 23.2172 42.4328 22.6214 43.4171 21.9418 44.3481 21.1859 45.2156 19.9727 46.738 19.0126 48.4459 18.3422 50.2734 18.1391 51.3906 18.6875 51.8172 19.1547 52.7109 19.6061 53.4328 19.8193 54.2784 19.7641 55.1281 20.0735 56.7084 20.2502 58.3121 20.2922 59.9218 19.8301 62.0185 19.1493 64.0609 18.2609 66.0156 17.7734 67.4578 18.4234 67.0922 18.85 68.514 19.1344 69.5093 18.7281 69.9562 18.85 70.9515 19.0937 73.1656 20.4547 72.5968 21.6531 73.5922 22.1203 73.9984 22.7703 75.2781 23.2375 75.7859 24.6707 76.9945 25.8808 78.445 26.8125 80.0718 27.2523 81.7243 28.2681 83.165 29.6765 84.1343 31.0984 85.089 32.5406 86.0031 33.9015 87.0593 35.0646 88.1597 36.3776 89.0898 37.8015 89.8218 40.0765 90.7562 41.6812 89.375 43.8953 88.8265 45.9511 88.3293 48.0957 88.3293 50.1515 88.8265 51.7284 89.2758 53.4198 89.0709 54.8437 88.2578 57.9109 86.9781 63.0703 84.4593 66.4828 85.7187 68.3718 86.4296 68.3718 88.075 69.3875 89.3953 70.4031 90.7156 70.9718 90.289 72.3125 90.1671 73.2509 89.9721 74.2007 89.8365 75.1562 89.7609 76.8828 89.7609 75.8671 89.8625 77.1875 90.614 79.2187 91.8734 79.4218 93.4984 78.9547 95.8546 78.836 97.4865 78.5709 99.1046 78.1625 100.689 77.4312 102.416 76.7812 102.314 77.939 104.203 79.0343 105.861 80.3081 107.393 81.7375 108.773 83.2018 110.296 84.2631 112.16 84.825 114.197 85.3531 115.72 86.9781 117.63 87.0187 119.234 87.0187 119.844 86.5312 120.433 86.5312 120.859 86.6283 121.765 86.9045 122.642 87.3437 123.439 88.2899 124.941 88.2899 126.853 87.3437 128.355 86.1158 129.898 85.1672 131.644 84.5406 133.514 83.5046 137.191 82.7125 140.156 84.825 143.67 85.9015 145.397 86.8562 147.225 87.75 148.992 88.8631 150.902 89.4844 153.059 89.5578 155.269 89.6796 156.731 90.1875 158.112 90.3906 159.555 90.6209 161.289 91.143 162.971 91.9343 164.531 92.7468 165.973 94.2093 166.826 94.9609 168.309 95.7125 169.792 96.6062 171.986 97.4796 173.773 97.8453 174.545 98.3531 174.972 98.3125 175.926 98.3125 176.353 97.4593 177.511 97.4796 177.795 97.8841 179.263 98.8081 180.533 100.08 181.37 102.477 182.934 105.259 180.761 107.92 180.355 109.667 180.091 111.434 180.761 113.141 180.355 114.823 180.046 116.465 179.549 118.036 178.872 121.4 176.991 124.204 174.25 126.161 170.93 128.009 167.801 131.239 165.831 130.934 161.708 130.934 160.611 130.305 160.509 130.934 159.433 131.402 158.742 132.742 158.336 133.453 158.011 135.2 157.259 136.297 157.097 136.662 155.066 136.949 152.804 136.611 150.507 135.687 148.423 135.261 147.205 134.773 147.042 135.362 145.762 135.951 144.483 137.556 143.995 138.45 143.244 139.601 142.001 140.881 140.884 142.269 139.912 144.12 139.276 145.806 138.235 147.205 136.866 148.87 134.834 148.545 133.697 148.241 131.3 147.976 129.269 148.789 126.303 147.956 124.434 147.123 122.566 145.925 121.652 145.539 119.417 145.417 118.483 146.006 116.837 145.803 116.127 145.6 115.416 144.483 114.969 144.401 113.73 144.28 111.983 146.433 108.509 147.326 107.087 148.447 105.756 149.655 104.501 150.942 103.33 152.349 101.491 153.89 99.7599 155.553 98.15 157.3 96.6265 159.392 95.6312 161.159 94.0875 164.263 91.3181 166.789 87.9634 168.594 84.2156 169.872 82.2374 170.96 80.1425 171.844 77.9593 171.884 77.5328 172.9 72.15 171.397 73.389ZM127.116 119.844C126.628 120.595 123.744 115.984 123.419 115.395 122.514 113.133 122.268 110.662 122.708 108.266 123.886 110.297 123.784 112.917 124.739 114.766 125.145 115.639 127.847 118.727 127.116 119.844ZM132.905 104.244C132.6 105.239 133.23 105.787 131.828 105.97 130.799 106.14 129.749 106.14 128.72 105.97 127.826 105.442 128.456 102.009 128.72 101.319 129.269 100.059 129.959 100.12 131.076 99.8156 132.966 99.3078 133.514 100.202 135.281 100.75 134.195 101.685 133.375 102.89 132.905 104.244ZM133.9 128.619C133.737 126.587 133.676 124.191 133.676 122.139 135.098 122.139 135.708 125.714 135.87 126.77 136.033 127.826 135.484 128.801 135.606 129.756 135.728 130.711 136.419 131.645 136.317 132.519 134.509 132.661 134.062 130.406 133.9 128.68Z" fill="#333F50" fill-rule="nonzero" fill-opacity="1" transform="matrix(1 0 0 1 203 612)"/><path d="M166.766 130.975C165.824 132.465 164.698 133.83 163.414 135.037 161.957 135.87 160.419 136.55 158.823 137.069 157.064 137.976 156.125 139.945 156.528 141.883 156.92 143.053 157.205 144.256 157.381 145.478 157.135 146.668 156.621 147.787 155.878 148.748 154.395 151.328 155.309 152.526 155.675 155.228 156.041 157.93 157.036 158.255 159.189 159.291 161.342 158.559 162.926 158.397 163.82 156.203 164.714 154.009 165.445 151.125 166.237 148.626 167.207 146.217 167.995 143.739 168.594 141.212 168.878 139.303 168.959 137.495 169.264 135.626L170.625 136.094C170.873 133.742 170.383 131.371 169.223 129.309 167.456 127.197 167.619 129.756 166.766 130.975Z" fill="#333F50" fill-rule="nonzero" fill-opacity="1" transform="matrix(1 0 0 1 203 612)"/></g></g></g></g></g></svg>