<svg width="197" height="197" xmlns="http://www.w3.org/2000/svg" xmlns:xlink="http://www.w3.org/1999/xlink" xml:space="preserve" overflow="hidden"><g transform="translate(-201 -843)"><g><g><g><g><path d="M382.766 898.828 382.766 897.609C382.359 897.812 381.953 898.219 381.547 898.625 381.75 898.625 381.75 898.828 381.953 898.828 382.156 898.828 382.359 898.828 382.766 898.828Z" fill="#333F50" fill-rule="nonzero" fill-opacity="1"/><path d="M312.484 996.125C312.688 995.719 312.891 995.516 313.297 995.516L313.906 995.516C313.703 994.906 313.094 994.703 312.891 994.297L312.891 993.891C312.688 993.281 312.078 993.281 312.281 992.672 312.281 992.266 312.484 991.859 312.688 991.453 312.891 991.453 312.891 991.453 313.094 991.453 313.297 991.453 313.297 991.453 313.5 991.25L313.5 990.844 314.313 990.641C313.703 990.031 313.703 990.031 313.297 990.031 312.891 990.031 312.688 989.828 312.688 989.422 312.688 989.016 312.281 988.812 311.875 988.812 311.672 988.812 311.672 989.016 311.469 989.016 311.063 989.625 310.453 990.031 310.047 990.641 308.828 990.844 308.625 991.047 308.219 991.859 307.813 992.672 307 993.078 306.188 993.078 305.781 993.078 305.578 993.484 305.375 993.687 305.375 993.891 305.375 994.297 304.766 994.5L303.344 994.094C302.734 994.5 302.531 995.312 302.938 995.922 302.938 996.125 302.938 996.125 303.141 996.328 303.141 996.734 303.344 997.141 303.75 997.344 303.953 997.547 304.156 997.75 304.156 997.953 304.156 998.359 304.359 998.969 304.563 999.375 304.969 999.375 305.172 999.375 305.578 999.375 305.781 999.375 305.984 999.375 306.188 999.578 306.391 999.984 307 999.984 307.203 999.781 307.406 999.578 307.813 999.578 308.016 999.781 308.422 999.984 308.828 999.984 309.031 999.578 309.031 999.578 309.031 999.578 309.031 999.578 309.031 999.578 309.234 999.578 309.234 999.578 309.234 999.984 309.031 1000.39 309.438 1000.8 310.047 1000.8 310.453 1000.19 311.063 1000.59 310.859 1000.19 310.859 999.781 311.063 999.375 311.266 999.172 311.266 998.969 311.266 998.766 311.063 998.359 311.266 997.75 311.875 997.547 312.281 997.344 312.484 996.937 312.484 996.328 312.281 996.328 312.281 996.125 312.484 996.125Z" fill="#333F50" fill-rule="nonzero" fill-opacity="1"/><path d="M299.281 999.781C299.078 999.375 298.672 999.172 298.266 998.969 298.063 998.969 297.859 998.562 297.656 998.359 297.453 998.156 297.453 997.953 297.25 997.547 296.844 997.344 296.438 997.344 296.234 996.937L296.438 995.922C296.234 995.719 295.828 995.719 295.828 995.516 295.828 995.109 295.422 994.906 295.219 994.906 295.016 994.5 294.406 994.5 294.203 994.094 294 993.891 293.797 993.687 293.594 993.891 292.984 994.094 292.781 993.687 292.578 993.281 292.172 992.875 291.766 992.469 291.359 992.266 290.953 992.062 290.547 991.656 290.344 991.25 290.141 990.641 289.531 990.437 288.922 990.437 288.516 990.437 288.109 990.437 287.703 990.031 287.703 990.031 287.5 990.031 287.297 990.031 287.094 990.437 287.297 990.641 287.5 990.844 287.703 991.25 288.109 991.453 288.516 991.859 289.125 992.062 289.531 992.469 289.734 993.078 289.938 993.484 290.141 993.687 290.547 993.891 290.953 994.094 291.156 994.297 291.156 994.703 291.156 994.906 291.359 995.312 291.563 995.516 291.563 995.719 291.766 995.719 291.766 995.922 292.578 996.734 293.188 997.547 293.594 998.562 293.594 998.766 293.797 998.969 294 999.172 294.406 999.578 294.813 999.984 295.016 1000.39 295.422 1000.8 295.828 1001.2 296.234 1001.41 296.641 1001.81 297.047 1002.02 297.656 1002.42L299.078 1002.42C299.281 1001.81 299.281 1000.8 299.281 999.781Z" fill="#333F50" fill-rule="nonzero" fill-opacity="1"/><path d="M339.297 947.578 338.281 947.375 337.875 947.984C337.875 948.797 337.875 949.406 337.672 950.219 337.266 950.828 336.859 951.437 336.453 952.047 336.047 952.656 335.234 952.859 334.625 953.062L334.219 952.453C334.219 952.859 334.016 953.266 333.813 953.469 333.609 953.672 333.406 953.875 333.406 954.078 333.203 954.484 333 954.687 332.594 954.484 332.188 954.281 331.984 954.281 331.578 954.484 330.969 954.484 330.359 954.484 329.75 954.687 329.141 954.891 328.734 955.297 328.328 955.703 328.125 955.703 328.125 955.906 327.922 955.906 327.719 955.906 327.719 956.109 327.719 956.312 328.125 956.312 328.531 956.516 328.734 956.312 329.141 956.109 329.344 956.109 329.75 955.906 330.156 955.906 330.563 955.703 330.766 955.703 331.172 955.5 331.984 955.5 332.391 955.703 332.391 956.719 332.391 956.719 333 957.125 333.203 956.922 333.406 956.719 333.406 956.516 333.406 956.312 333.813 956.109 334.016 955.906 333.813 955.5 333.813 955.5 334.219 955.297 334.422 955.297 334.422 955.5 334.625 955.5 335.234 955.906 335.844 955.703 336.25 955.297 336.25 955.297 336.453 955.297 336.453 955.297 336.656 955.297 336.453 955.703 336.859 955.703 336.859 955.5 337.063 955.297 337.266 955.094 337.469 954.891 337.672 954.891 337.875 954.687L337.875 955.297C338.281 955.297 338.281 954.687 338.688 954.484 338.484 954.078 338.484 953.469 338.688 953.062 338.891 952.859 338.891 952.656 338.891 952.25 338.891 951.641 338.688 951.234 339.297 950.828 339.5 950.625 339.5 950.422 339.703 950.219 339.906 949.812 340.109 949.203 339.703 948.797 339.703 948.187 339.5 947.984 339.297 947.578Z" fill="#333F50" fill-rule="nonzero" fill-opacity="1"/><path d="M337.063 890.703 337.469 890.094C338.484 890.703 339.297 890.094 340.109 890.094 340.516 890.5 340.516 890.5 340.922 890.297 341.531 890.094 342.141 889.891 342.75 889.687 342.953 889.687 343.156 889.484 343.156 889.281 343.359 889.078 343.359 888.875 343.563 888.672 343.156 888.469 342.75 888.266 342.344 888.266 341.734 888.062 341.734 888.062 341.328 888.672 341.125 888.875 341.125 888.875 340.922 889.078L341.328 889.891C340.719 889.891 340.313 889.484 340.313 888.875 340.313 888.672 340.313 888.469 340.516 888.469 340.719 888.266 340.719 888.266 340.922 888.062L339.906 887.453 339.094 887.656 338.688 888.266C337.875 888.062 337.063 887.656 336.453 887.047L335.438 887.656C335.438 887.656 335.438 887.656 335.438 887.656 335.031 887.859 334.828 888.266 334.828 888.672 334.828 888.875 334.625 889.078 334.625 889.484 335.031 889.687 335.234 889.891 335.438 890.094 335.844 890.5 336.453 890.703 337.063 890.703Z" fill="#333F50" fill-rule="nonzero" fill-opacity="1"/><path d="M287.703 877.703C287.5 877.703 287.094 877.703 286.891 877.906 286.688 877.906 286.484 878.109 286.484 878.109 286.484 878.516 286.078 878.516 285.875 878.719 285.672 878.719 285.672 878.922 285.469 878.922 285.672 879.125 286.078 879.328 286.281 879.531 286.484 879.734 286.688 879.937 286.688 880.344 287.5 880.344 288.109 880.547 288.719 880.547 288.922 880.547 288.922 880.547 289.125 880.75 289.938 881.156 290.75 881.156 291.766 880.953 291.969 880.953 292.172 880.75 292.375 880.547 292.375 880.141 292.375 879.937 292.375 879.531 292.375 879.125 292.375 878.719 292.578 878.312 291.969 877.906 291.359 877.703 290.75 878.312 290.547 878.516 290.344 878.516 289.938 878.516 289.938 878.516 289.938 878.516 289.734 878.312 289.938 878.109 290.344 878.109 290.141 877.703 289.938 877.703 289.734 877.5 289.328 877.5 288.922 877.703 288.313 877.703 287.703 877.703Z" fill="#333F50" fill-rule="nonzero" fill-opacity="1"/><path d="M316.141 995.922C316.344 995.922 316.547 995.922 316.75 995.922 317.563 995.922 318.375 995.922 318.984 996.125 319.797 996.328 320.406 995.719 320.813 994.703 320.609 994.906 320.406 994.906 320.203 995.109 319.797 995.516 319.391 995.719 318.781 995.516 317.969 995.516 316.953 995.312 316.141 995.109 315.734 995.312 315.531 995.516 315.328 995.516 315.125 995.719 314.922 995.719 314.922 995.922 314.719 996.734 314.516 997.344 314.313 998.156 314.313 998.562 314.109 998.969 313.906 999.375 313.906 999.578 313.703 999.781 313.703 999.984 313.703 1000.19 313.703 1000.39 313.906 1000.39 314.516 1000.59 314.516 1001 314.516 1001.61 314.516 1001.81 314.516 1002.22 314.313 1002.42 314.313 1002.83 314.516 1003.03 314.922 1002.83 315.125 1002.83 315.125 1002.62 315.125 1002.62L315.125 999.984C315.328 999.984 315.328 999.781 315.531 999.781 315.734 999.578 316.141 999.781 316.141 1000.19 316.141 1000.39 316.141 1000.59 316.141 1000.8 316.547 1001.2 316.75 1001.61 316.953 1002.02L318.375 1001.41C317.969 1001.41 317.563 1001 317.563 1000.59 317.563 1000.19 317.359 999.781 317.156 999.578 316.953 999.375 316.953 999.172 316.75 998.969 316.953 998.766 317.156 998.562 317.359 998.562 317.766 998.359 318.172 997.953 318.172 997.547 317.969 997.75 317.563 997.953 317.156 997.953 316.953 997.953 316.547 998.156 316.344 998.359 316.141 998.562 315.938 998.562 315.734 998.359 315.531 998.156 315.531 998.156 315.328 997.953 315.125 997.75 314.922 997.344 315.125 996.937 315.531 995.922 315.734 995.719 316.141 995.922Z" fill="#333F50" fill-rule="nonzero" fill-opacity="1"/><path d="M340.922 929.297C340.719 929.5 340.719 929.5 340.516 929.5 340.313 929.5 340.109 929.5 339.906 929.5 339.703 930.109 339.703 930.719 339.5 931.328 339.5 931.531 339.5 931.734 339.703 931.937 340.109 932.344 340.313 933.156 340.109 933.766 340.109 933.969 340.109 934.375 340.109 934.578 340.109 934.984 340.109 935.391 340.109 935.797 340.109 936.203 340.109 936.609 340.109 936.812 340.109 937.016 340.313 937.422 340.109 937.625 339.906 938.234 340.109 939.047 339.906 939.656 339.906 939.656 339.906 939.859 339.906 939.859 339.906 939.859 339.906 939.859 340.109 940.062L340.516 939.453 341.328 939.453C341.125 939.047 340.922 938.641 340.719 938.234 340.516 937.828 340.313 937.422 340.516 936.812 340.516 936.609 340.719 936.406 340.719 936.406 340.719 935.797 341.328 935.391 341.938 935.391 341.938 935.391 342.141 935.391 342.141 935.391 342.141 935.391 342.141 935.391 342.141 935.391 342.141 935.391 342.141 935.187 342.141 935.187 341.938 934.172 341.531 933.359 341.125 932.344 340.922 931.937 340.922 931.328 340.922 930.922 341.531 930.516 341.328 929.906 340.922 929.297Z" fill="#333F50" fill-rule="nonzero" fill-opacity="1"/><path d="M285.266 878.109C285.469 877.906 285.469 877.906 285.672 877.703 285.875 877.703 285.875 877.703 286.078 877.703 286.484 877.5 287.094 877.297 287.5 877.297 288.109 877.297 288.719 877.094 289.328 877.094L289.328 876.281 290.141 875.875C289.734 875.672 289.328 875.469 288.922 875.266 288.516 875.062 288.109 874.859 287.906 874.656 287.5 874.859 287.094 874.859 286.688 875.062 286.281 875.266 285.672 875.266 285.266 875.469 285.063 875.469 284.859 875.672 284.859 875.875 284.859 876.281 284.656 876.687 284.25 876.891 284.047 876.891 284.047 877.094 283.844 877.094L284.859 877.906C284.25 877.906 283.844 877.906 283.438 877.906 283.234 877.906 283.031 877.906 283.031 878.312 283.438 878.516 283.641 878.719 284.047 878.719 284.656 878.719 285.063 878.516 285.266 878.109Z" fill="#333F50" fill-rule="nonzero" fill-opacity="1"/><path d="M310.047 1005.67C309.641 1005.67 309.031 1005.67 308.625 1005.27 308.625 1005.06 308.219 1005.27 308.016 1005.27 307.813 1005.27 307.406 1005.27 307.203 1005.06 307.203 1005.06 307 1004.86 307 1004.66 307 1004.66 307.203 1004.45 307.203 1004.45 307.406 1004.45 307.813 1004.66 307.813 1004.05 306.797 1004.25 305.578 1004.05 304.563 1003.64 304.359 1004.05 303.953 1004.25 303.547 1004.05 303.344 1004.05 303.141 1004.05 302.938 1004.05 302.531 1004.05 302.125 1003.84 301.922 1003.64 301.719 1003.44 301.719 1003.44 301.516 1003.44 300.703 1003.23 300.094 1003.03 299.281 1003.23L299.078 1003.84C299.281 1004.05 299.688 1004.05 299.891 1004.25 300.094 1004.66 300.5 1004.66 300.906 1004.66 301.109 1004.66 301.313 1004.86 301.516 1004.86 301.719 1004.86 301.922 1005.06 302.125 1004.86 302.734 1004.66 303.547 1004.86 304.156 1005.06 304.766 1005.27 305.375 1005.47 305.984 1005.47 306.797 1005.47 307.609 1005.47 308.219 1005.67 308.219 1005.67 308.422 1005.67 308.422 1005.67 308.828 1005.27 309.234 1005.47 309.438 1005.67 309.438 1005.67 309.641 1005.67 309.641 1005.67 310.047 1006.08 310.047 1005.87 310.047 1005.67 310.047 1005.87 310.047 1005.67 310.047 1005.67Z" fill="#333F50" fill-rule="nonzero" fill-opacity="1"/><path d="M342.953 943.516C342.141 943.312 341.328 942.906 340.719 942.297 340.516 942.094 340.313 941.687 340.109 941.484 339.906 941.281 339.703 941.484 339.703 941.687 339.906 942.297 339.906 943.109 339.5 943.719 339.5 943.922 339.5 944.125 339.297 944.125 339.297 944.328 339.094 944.531 338.891 944.531 338.891 944.531 338.891 944.531 338.891 944.531L338.484 944.531C338.484 944.734 338.281 944.937 338.078 945.141 337.875 945.344 337.672 945.547 337.469 945.547 337.672 945.75 337.672 945.953 337.672 946.156 337.672 946.359 337.672 946.562 337.875 946.766L338.688 946.156C338.484 946.156 338.281 945.953 338.078 945.75 338.078 945.75 337.875 945.547 337.875 945.344 337.875 945.141 338.078 945.141 338.281 945.141 338.484 945.141 338.688 945.344 339.094 945.141 339.297 944.937 339.703 944.937 340.109 945.141 340.516 945.344 340.922 945.547 341.328 945.547 341.328 945.344 341.531 945.344 341.531 945.141 341.734 944.734 342.344 944.328 342.953 944.328 343.156 944.328 343.563 944.125 343.766 944.125L343.563 943.109C343.359 943.312 343.156 943.516 342.953 943.516Z" fill="#333F50" fill-rule="nonzero" fill-opacity="1"/><path d="M293.594 882.781C294 882.578 294.406 882.375 295.016 882.375 296.031 882.375 297.047 882.172 298.063 882.172 298.266 882.172 298.469 882.172 298.469 881.969 298.672 881.766 298.672 881.562 298.672 881.359 298.672 881.156 298.469 880.953 298.266 880.953 298.063 880.953 297.859 880.75 297.656 880.75 297.453 880.547 297.25 880.344 297.047 880.344 296.641 880.547 296.438 880.547 296.031 880.75 296.031 880.75 295.828 880.75 295.828 880.75L296.031 880.141C295.828 879.937 295.625 879.937 295.422 880.141 295.422 880.141 295.219 880.344 295.219 880.344 294.609 880.141 294.406 880.547 294.203 880.953 294 881.156 294 881.359 293.797 881.562 293.188 881.969 292.984 882.781 292.375 883.391 292.578 882.984 293.188 882.984 293.594 882.781Z" fill="#333F50" fill-rule="nonzero" fill-opacity="1"/><path d="M315.125 978.25C315.125 978.656 315.328 978.859 315.328 979.266 315.328 979.469 315.531 979.672 315.938 979.672 315.938 979.672 315.938 979.672 315.938 979.672 315.938 979.672 316.141 979.672 316.344 979.672L316.141 980.484C316.75 980.891 316.75 980.891 317.156 980.484L316.953 979.469C316.75 979.062 316.953 978.453 317.359 978.25 317.766 978.047 317.969 977.641 317.969 977.234L317.563 975.812C317.359 975.812 317.359 975.812 317.156 975.609 316.344 975.203 315.938 975.406 315.938 976.422 315.938 976.625 315.938 976.625 315.938 976.828 315.938 977.234 315.938 977.844 315.734 978.047 315.328 978.25 315.125 977.844 315.125 978.25Z" fill="#333F50" fill-rule="nonzero" fill-opacity="1"/><path d="M321.625 985.562C321.625 985.562 321.625 985.562 321.625 985.562L321.422 985.969 319.797 987.187C319.797 987.187 319.594 987.187 319.594 986.984 319.188 986.578 319.188 986.578 318.781 986.984 318.578 987.187 318.172 987.391 317.766 987.594L317.766 988 318.375 987.594C318.578 987.594 318.578 987.594 318.781 987.594 318.984 987.594 319.188 987.594 319.188 987.594 319.391 987.391 319.797 987.594 320 987.797 320.203 988 320.203 988.203 320 988.406 319.797 988.812 320 989.422 320.609 989.422 320.609 989.422 320.609 989.422 320.609 989.422 320.813 989.422 321.016 989.625 321.016 989.625 321.219 989.625 321.422 990.031 321.625 989.625 321.625 989.422 321.625 989.422 321.625 989.219 321.625 989.016 321.625 989.016 321.422 988.812 321.422 988.609 321.422 988.406 321.625 988.203 321.828 988 322.031 988 322.234 988.203 322.438 988.203 322.641 988.203 322.641 988 322.641 988 322.641 987.797 322.641 987.797 322.641 987.594 322.641 987.594 322.641 987.391 322.438 986.984 322.438 986.781 322.438 986.375 322.234 986.172 322.031 985.766 321.625 985.562Z" fill="#333F50" fill-rule="nonzero" fill-opacity="1"/><path d="M270.844 985.766C270.844 985.766 270.641 985.562 270.438 985.562 269.828 986.578 269.625 987.797 270.031 988.812 270.234 989.422 270.438 989.422 271.047 989.422 271.25 989.422 271.453 989.219 271.453 989.219 271.86 989.016 272.063 988.406 271.86 988 271.86 987.187 271.25 986.578 270.844 985.766Z" fill="#333F50" fill-rule="nonzero" fill-opacity="1"/><path d="M345.188 889.687C345.797 889.891 346.406 890.297 347.219 890.5 347.219 890.5 347.422 890.5 347.422 890.5 348.234 890.703 349.047 890.5 349.859 890.094 349.656 889.891 349.656 889.891 349.453 889.687 349.047 889.484 348.641 889.484 348.234 889.484 348.031 889.484 347.625 889.484 347.422 889.281 347.016 889.078 346.609 888.875 346.203 889.078 346 889.078 345.797 889.078 345.594 889.078 345.391 889.078 345.188 888.875 344.984 888.672 344.984 888.875 344.781 889.078 344.781 889.078 344.984 889.484 345.188 889.484 345.188 889.687Z" fill="#333F50" fill-rule="nonzero" fill-opacity="1"/><path d="M327.313 956.719C326.906 956.922 326.703 957.125 326.297 957.328 326.297 957.328 326.297 957.531 326.297 957.531L326.5 957.734 326.906 957.531C327.313 957.734 327.313 958.344 327.109 958.547 327.109 958.547 327.109 958.547 327.109 958.547 326.906 958.953 326.703 959.156 327.109 959.562 327.313 959.359 327.516 959.562 327.719 959.766 328.125 959.562 328.125 959.562 328.328 959.156 328.531 958.75 328.734 958.344 328.734 957.734 328.734 957.734 328.734 957.531 328.734 957.531L328.531 956.922 327.313 956.719Z" fill="#333F50" fill-rule="nonzero" fill-opacity="1"/><path d="M316.141 970.734C316.75 969.922 317.156 969.109 317.156 968.297 317.156 968.094 317.156 967.891 317.156 967.687 317.156 967.484 316.953 967.484 316.75 967.484 316.75 967.484 316.75 967.484 316.547 967.484 316.344 967.484 316.344 967.687 316.141 967.687 315.938 968.094 315.734 968.5 315.328 968.703 315.125 969.109 315.125 969.516 315.125 969.922 315.531 970.328 315.734 970.734 316.141 970.734Z" fill="#333F50" fill-rule="nonzero" fill-opacity="1"/><path d="M304.359 974.797C304.563 974.391 304.766 974.187 304.969 973.578 304.156 973.172 303.344 973.375 302.734 973.984 302.531 974.187 302.328 974.797 302.734 975 302.734 975 302.938 975.203 302.938 975.203 303.547 975.609 304.156 975.406 304.359 974.797Z" fill="#333F50" fill-rule="nonzero" fill-opacity="1"/><path d="M341.531 893.75C341.734 893.547 341.734 893.141 341.531 893.141 340.922 892.734 340.313 892.328 339.5 892.531 339.094 892.531 338.688 892.937 338.484 893.344 339.5 893.75 340.516 893.953 341.531 893.75Z" fill="#333F50" fill-rule="nonzero" fill-opacity="1"/><path d="M321.625 1006.08C321.422 1006.08 321.422 1006.08 321.219 1006.28 320.813 1006.48 320.203 1006.89 319.797 1007.09 319.391 1007.3 319.188 1007.7 319.391 1008.11 319.797 1008.11 320.406 1007.91 320.609 1007.5 321.016 1007.09 321.422 1006.89 321.828 1006.69 322.234 1006.48 322.844 1006.28 323.25 1006.08L321.828 1006.28C321.828 1006.08 321.625 1006.08 321.625 1006.08Z" fill="#333F50" fill-rule="nonzero" fill-opacity="1"/><path d="M331.375 956.109C331.172 956.109 331.172 956.109 330.969 956.109 330.766 956.516 330.156 956.719 329.75 956.516 329.547 956.719 329.547 956.922 329.344 957.125 329.344 957.328 329.344 957.531 329.344 957.531 329.344 957.734 329.547 957.734 329.75 957.937 329.953 957.734 330.156 957.531 330.359 957.328 330.563 957.125 330.766 957.125 331.172 957.328 331.375 957.328 331.578 957.125 331.781 956.719 331.984 956.312 331.375 956.312 331.375 956.109Z" fill="#333F50" fill-rule="nonzero" fill-opacity="1"/><path d="M321.016 982.312C320.813 982.109 320.406 982.312 320.203 982.516L320.813 983.328 320.406 983.937 320.813 984.953 321.016 984.953C321.016 984.75 321.016 984.547 321.016 984.344 321.016 984.141 321.219 983.937 321.422 983.937 321.422 983.734 321.422 983.531 321.422 983.328 321.422 982.719 321.219 982.516 321.016 982.312Z" fill="#333F50" fill-rule="nonzero" fill-opacity="1"/><path d="M324.063 894.969C324.469 894.766 324.672 894.562 325.078 894.562 325.078 894.562 325.078 894.359 325.078 894.359 325.078 894.359 325.078 894.156 324.875 894.156 324.469 894.156 324.063 894.156 323.859 893.75 323.859 893.75 323.656 893.75 323.656 893.75L323.656 894.766C323.859 894.766 324.063 894.969 324.063 894.969Z" fill="#333F50" fill-rule="nonzero" fill-opacity="1"/><path d="M259.266 894.156C259.672 893.953 260.078 894.156 260.281 893.75 260.281 893.547 260.078 893.344 259.875 893.344 259.672 893.344 259.266 893.344 259.063 893.547 259.063 893.75 258.86 893.75 259.063 893.953 259.063 894.156 259.063 894.156 259.266 894.156Z" fill="#333F50" fill-rule="nonzero" fill-opacity="1"/><path d="M306.797 891.109C306.391 891.109 306.188 891.312 306.188 891.516 306.391 891.922 306.594 891.922 307 891.922 307.203 891.922 307.609 891.719 307.609 891.516 307.609 891.516 307.609 891.312 307.609 891.312 307.609 891.312 307.609 891.109 307.406 891.109 307.203 891.109 307 891.109 306.797 891.109Z" fill="#333F50" fill-rule="nonzero" fill-opacity="1"/><path d="M318.984 984.344C318.984 984.141 318.984 984.141 318.984 984.344 318.781 984.141 318.578 984.141 318.578 984.141 318.578 984.141 318.578 984.344 318.578 984.344 318.578 984.547 318.578 984.75 318.375 984.953 318.172 985.156 318.172 985.156 317.969 985.359 318.172 985.766 318.375 985.969 318.781 985.969 318.375 985.562 318.781 985.156 318.781 984.75 318.984 984.547 318.984 984.547 318.984 984.344Z" fill="#333F50" fill-rule="nonzero" fill-opacity="1"/><path d="M319.188 980.687C318.984 980.687 318.781 980.484 318.578 980.484 318.578 980.484 318.375 980.281 318.172 980.281 317.969 980.281 317.766 980.281 317.766 980.484 317.766 980.484 317.766 980.484 317.766 980.484 317.766 980.484 317.766 980.687 317.766 980.687L318.375 980.484 319.391 981.297 320 981.297C320 981.297 320 981.297 320 981.297 319.391 981.5 319.391 980.891 319.188 980.687Z" fill="#333F50" fill-rule="nonzero" fill-opacity="1"/><path d="M315.938 1005.87C315.734 1005.87 315.328 1005.87 315.125 1006.08 315.938 1006.48 316.75 1006.48 317.359 1006.08 316.953 1006.08 316.75 1006.08 316.547 1006.08 316.547 1006.08 316.141 1005.87 315.938 1005.87Z" fill="#333F50" fill-rule="nonzero" fill-opacity="1"/><path d="M323.859 995.719 324.063 996.531 324.266 995.922 324.875 995.719C324.672 995.516 324.875 995.312 324.875 995.109 324.875 994.906 325.078 994.703 324.875 994.5L323.859 995.719Z" fill="#333F50" fill-rule="nonzero" fill-opacity="1"/><path d="M317.563 984.141C317.563 984.141 317.563 984.141 317.563 984.141L318.172 984.344 318.781 983.531 317.766 983.125C317.563 983.531 317.563 983.734 317.563 984.141Z" fill="#333F50" fill-rule="nonzero" fill-opacity="1"/><path d="M314.313 1007.3C314.516 1007.5 314.719 1007.5 314.922 1007.5 315.125 1007.5 315.328 1007.7 315.531 1007.91 315.734 1007.91 315.734 1007.91 315.938 1007.91 315.938 1007.91 315.938 1007.91 315.938 1007.91 315.328 1007.09 315.125 1006.89 314.313 1007.3Z" fill="#333F50" fill-rule="nonzero" fill-opacity="1"/><path d="M299.484 999.172C299.484 999.375 299.688 999.375 299.891 999.578 299.891 999.578 300.094 999.578 300.297 999.578 300.094 999.375 299.891 999.172 299.891 998.969 299.688 998.766 299.688 998.562 299.484 998.156 299.281 998.156 299.281 998.156 299.078 998.156 299.078 998.156 298.875 998.359 298.875 998.359 299.078 998.766 299.281 998.969 299.484 999.172Z" fill="#333F50" fill-rule="nonzero" fill-opacity="1"/><path d="M315.938 981.297C315.938 981.703 316.141 981.906 316.344 982.312 316.344 982.312 316.547 982.312 316.547 982.312 316.547 982.312 316.75 982.312 316.75 982.109 316.953 981.906 316.75 981.5 316.75 981.297 316.547 981.094 316.141 981.094 315.938 981.297Z" fill="#333F50" fill-rule="nonzero" fill-opacity="1"/><path d="M323.047 1000.59C323.047 1000.59 323.25 1000.39 323.25 1000.39 323.25 1000.19 323.25 1000.19 323.047 1000.19 322.844 999.984 322.438 1000.19 322.234 1000.39 322.234 1000.39 322.641 1000.59 323.047 1000.59Z" fill="#333F50" fill-rule="nonzero" fill-opacity="1"/><path d="M318.578 1001.2C318.578 1001.41 318.375 1001.61 318.172 1001.81 317.969 1002.02 317.969 1002.02 317.969 1002.22 317.969 1002.42 318.172 1002.62 318.578 1002.42 318.578 1002.02 318.578 1001.61 318.578 1001.2L318.578 1001.2Z" fill="#333F50" fill-rule="nonzero" fill-opacity="1"/><path d="M311.875 1006.08C311.875 1006.08 311.672 1006.28 311.672 1006.28 311.672 1006.48 311.875 1006.48 311.875 1006.48 312.281 1006.48 312.688 1006.28 313.094 1006.08 312.891 1006.08 312.688 1006.08 312.484 1005.87 312.281 1006.08 312.078 1006.08 311.875 1006.08Z" fill="#333F50" fill-rule="nonzero" fill-opacity="1"/><path d="M312.891 1005.67C312.891 1005.87 313.094 1006.08 313.094 1006.08 313.297 1006.08 313.5 1006.08 313.703 1006.08 313.906 1006.08 313.906 1006.08 313.906 1005.87 313.906 1005.87 313.906 1005.67 313.703 1005.67 313.5 1005.87 313.297 1005.87 312.891 1005.67Z" fill="#333F50" fill-rule="nonzero" fill-opacity="1"/><path d="M324.063 994.5C324.063 994.5 324.063 994.5 324.063 994.5 323.859 994.5 323.859 994.5 323.656 994.703 323.656 994.906 323.656 994.906 323.453 995.312 324.266 995.109 324.266 994.703 324.063 994.5Z" fill="#333F50" fill-rule="nonzero" fill-opacity="1"/><path d="M338.484 891.719C338.281 891.719 338.281 891.922 338.484 891.719 338.281 891.922 338.281 892.125 338.484 892.125 338.688 892.328 338.891 892.125 339.094 891.719 338.688 891.719 338.688 891.719 338.484 891.719Z" fill="#333F50" fill-rule="nonzero" fill-opacity="1"/><path d="M310.859 1006.08C310.859 1006.08 310.859 1006.28 310.859 1006.28L311.266 1006.08C311.063 1005.87 311.063 1005.87 311.063 1005.87 311.063 1005.87 310.859 1006.08 310.859 1006.08Z" fill="#333F50" fill-rule="nonzero" fill-opacity="1"/><path d="M319.797 985.359C319.797 985.359 319.797 985.359 319.797 985.359 320 985.562 320.203 985.359 320.406 985.359 320.203 985.156 320.203 985.156 320.203 985.156 320 985.156 319.797 985.156 319.797 985.359Z" fill="#333F50" fill-rule="nonzero" fill-opacity="1"/><path d="M323.25 893.547 322.641 893.75C323.047 893.953 323.047 893.953 323.25 893.547Z" fill="#333F50" fill-rule="nonzero" fill-opacity="1"/><path d="M319.594 984.344 319.188 984.75C319.391 984.75 319.594 984.75 319.594 984.344Z" fill="#333F50" fill-rule="nonzero" fill-opacity="1"/><path d="M318.984 997.141 318.375 996.937C318.578 997.141 318.578 997.547 318.984 997.141Z" fill="#333F50" fill-rule="nonzero" fill-opacity="1"/><path d="M324.875 993.687C324.875 993.687 324.672 993.687 324.875 993.687 324.672 993.687 324.672 993.687 324.672 993.891 324.672 993.891 324.672 993.891 324.875 993.891L324.875 993.687Z" fill="#333F50" fill-rule="nonzero" fill-opacity="1"/><path d="M392.109 906.75C391.906 906.547 391.703 906.547 391.297 906.547 390.891 906.75 390.484 906.547 390.078 906.344 389.875 906.344 389.672 906.344 389.469 906.344 389.469 906.75 389.672 907.156 389.672 907.562L389.063 907.562 388.453 906.953C388.656 906.141 388.25 905.328 387.641 904.922L387.031 905.125C387.031 904.922 386.828 904.719 386.828 904.516 386.422 904.312 386.016 904.109 385.609 903.906 385 903.703 384.391 903.297 383.984 902.891 383.781 902.687 383.578 902.687 383.375 902.484 383.172 902.281 382.766 902.281 382.563 902.281L382.563 902.484C381.953 902.078 381.141 901.875 380.328 901.672 379.922 901.672 379.313 901.469 378.906 901.266 378.5 901.062 378.094 901.062 377.688 901.062 376.469 901.062 375.25 901.062 374.031 900.859 373.625 900.656 373.016 900.656 372.609 900.656 372.609 900.656 372.406 900.656 372.406 900.656L372.203 901.469C372.609 901.875 372.813 902.281 372.813 902.687 372.406 903.297 371.797 903.297 371.391 903.297 370.984 902.687 370.984 902.687 369.766 902.281 369.766 902.078 369.766 901.875 369.563 901.469 369.563 901.469 369.563 901.469 369.563 901.469 369.969 901.469 370.172 901.469 370.578 901.469 370.781 901.469 370.781 901.266 370.781 901.062 370.578 901.062 370.375 900.859 370.172 900.859 369.969 900.859 369.766 900.859 369.563 900.859 369.156 901.062 368.953 901.469 368.547 901.672 368.344 901.875 368.141 901.875 367.938 901.875 367.125 901.875 366.109 901.875 365.297 901.672 364.281 901.469 363.469 901.469 362.453 901.875 362.047 902.078 361.641 902.078 361.234 901.875 360.828 901.672 360.625 901.672 360.219 901.469 360.016 901.469 359.813 901.266 359.609 901.266 359.609 901.062 359.813 900.859 359.813 900.656 360.016 900.25 359.813 899.844 359.609 899.641 359.406 899.437 359 899.234 358.797 899.234 357.781 898.828 356.766 898.828 355.75 898.828 354.938 898.828 354.125 899.031 353.516 899.234 352.906 899.437 352.5 899.437 351.891 899.437 351.484 899.437 351.078 899.234 351.078 898.828 350.875 898.422 350.469 898.219 350.063 898.219 349.859 898.219 349.859 898.219 349.656 898.219 349.047 897.812 348.641 897.609 348.031 897.406 348.234 897 348.438 897 348.641 897.203 348.641 897.203 348.844 897.203 348.844 897.203 348.844 897.203 348.844 897.203 348.844 897.203 348.844 897.203 348.844 897 348.641 897 347.828 896.594 346.813 896.391 346 896.391 345.797 896.391 345.594 896.594 345.391 896.594 345.188 896.594 345.188 896.797 345.188 896.797 345.188 896.594 345.188 896.391 345.188 896.391L344.984 896.391C344.984 895.781 344.578 895.781 344.375 895.781 343.563 895.578 342.75 895.578 341.938 895.375L339.094 895.172 339.094 895.578C338.688 895.781 338.078 895.781 337.469 895.781 337.266 895.781 337.063 895.984 337.063 896.187 337.063 896.187 337.063 896.187 337.063 896.187L337.875 896.187C337.266 896.594 337.672 897.203 337.672 897.812 337.266 898.016 337.266 898.016 336.656 897.812 336.453 897.812 336.453 897.812 336.25 897.812 336.047 897.812 335.844 897.812 335.641 897.812 335.641 898.016 335.641 898.422 335.438 898.625 335.234 898.625 335.234 898.625 335.234 898.625 334.625 898.219 334.016 898.016 333.406 897.812 333 897.609 332.594 897.812 332.188 898.016 331.578 898.422 330.766 898.422 330.359 898.016 329.953 897.812 329.75 897.609 329.344 897.406 329.141 897.609 329.141 897.812 328.938 898.016 328.734 898.422 328.531 898.625 328.531 899.031 328.328 899.437 328.125 899.641 327.719 899.641 326.5 899.234 325.484 898.422 324.875 897.203 324.469 896.797 324.266 896.391 323.656 896.187 323.453 896.187 323.25 896.187 323.047 896.187 322.844 896.391 323.047 896.797 322.641 896.797 322.234 896.797 321.828 896.391 321.625 895.984 321.828 895.984 322.031 895.984 322.031 895.781 322.031 895.172 322.234 894.969 322.438 894.562 322.438 894.359 322.438 894.156 322.438 894.156L322.234 893.75C321.828 893.75 321.625 893.547 321.219 893.344 320.813 893.141 320.203 893.141 319.797 893.344 319.594 893.344 319.391 893.547 319.391 893.547 319.594 893.953 319.594 894.359 319.391 894.766 319.391 894.969 319.797 894.969 319.594 895.172 319.391 895.172 319.188 895.172 318.984 895.172 318.375 894.766 317.563 894.766 316.953 894.766 316.141 894.766 315.328 894.766 314.516 894.359 314.109 894.156 313.703 893.953 313.703 893.547 313.703 893.547 313.703 893.547 313.5 893.344 313.094 893.344 312.484 893.344 312.078 893.141 311.063 892.937 310.047 892.937 309.031 893.141 308.828 893.141 308.625 893.344 308.625 893.547 308.625 893.547 308.422 893.75 308.422 893.75 307.609 893.75 308.219 892.937 307.813 892.734 307.203 893.141 306.391 892.937 305.578 892.531 305.172 892.328 304.766 892.328 304.563 892.328 304.359 892.328 304.156 892.531 303.953 892.937L305.172 892.937C304.563 893.547 303.953 893.75 303.547 893.75 303.141 893.75 302.938 893.953 302.531 893.953 302.125 894.156 301.719 894.359 301.109 894.359 300.906 894.359 300.5 894.359 300.297 894.359 299.891 894.359 299.891 894.562 299.688 894.766L298.875 894.969C299.281 894.562 299.484 893.75 300.297 893.547 300.297 893.547 300.5 893.344 300.5 893.344 300.703 893.141 300.906 892.937 301.313 892.937 301.516 892.937 301.719 892.937 301.922 892.937 302.531 892.531 303.141 892.125 303.953 891.719 304.359 891.516 304.563 891.109 304.969 891.109 305.375 891.109 305.781 890.906 306.188 890.703 306.594 890.297 307 890.297 307.406 890.094 307.609 889.891 307.813 889.687 308.016 889.484 308.219 889.281 308.219 889.078 308.016 888.875 307.813 888.672 308.016 888.672 308.219 888.469 308.422 888.469 308.422 888.266 308.422 888.062L307.813 887.656 307.203 887.859 306.797 886.641 306.594 887.047C305.984 886.437 305.172 886.234 304.156 886.437 303.953 886.437 303.953 886.437 303.75 886.437 303.141 886.437 302.734 886.437 302.125 886.437 301.922 886.437 301.922 886.437 301.719 886.641 301.313 887.25 300.703 887.047 300.094 887.047 299.891 886.437 300.703 886.437 300.703 886.031L297.859 885.828C298.266 885.422 298.875 885.422 299.281 884.812 298.469 884.406 297.453 884.406 296.438 884.609 295.422 884.812 294.406 885.422 293.797 886.437 293.797 886.844 294 887.25 294 887.453 293.594 887.453 293.188 887.453 292.984 887.453 292.781 887.453 292.172 887.453 291.969 887.453 291.969 887.453 291.969 887.453 291.766 887.453 291.766 887.656 292.172 887.656 292.172 888.062 291.563 887.859 290.953 887.859 290.344 888.266 289.734 888.672 288.922 888.672 288.109 888.469L288.313 887.859C288.313 887.859 288.109 887.859 288.109 887.859 287.906 887.859 287.906 887.859 287.703 887.859 287.297 888.062 286.891 888.266 286.484 888.062 286.078 888.062 285.469 888.062 285.063 888.266 285.063 888.672 284.859 888.672 284.656 888.672 283.844 888.875 283.031 888.875 282.422 889.078 282.016 889.078 281.609 889.281 281.203 889.281 281 889.281 280.797 889.484 280.797 889.484 280.594 889.484 280.188 889.687 279.984 889.687 279.578 889.891 278.969 890.094 278.563 890.094 278.359 890.094 278.359 890.094 278.156 890.094 278.156 890.297 278.563 890.297 278.359 890.5 278.359 890.5 278.156 890.5 278.156 890.5L277.75 891.109 277.344 891.719C277.75 892.125 278.359 892.531 278.563 893.141 278.359 893.344 278.156 893.547 277.953 893.547 277.547 893.547 277.141 893.547 276.734 893.547 277.141 893.547 277.344 893.141 277.547 892.937 277.344 892.937 277.141 892.937 276.734 892.937 276.125 893.141 275.719 893.141 275.109 893.141 274.094 893.344 273.078 893.344 272.063 893.344 271.86 893.344 271.656 893.344 271.453 893.344 270.844 893.344 270.641 893.75 270.844 894.359 271.047 894.562 271.047 894.969 271.047 895.375 271.047 895.781 271.25 895.984 271.656 895.984 271.656 895.984 271.86 895.984 271.86 895.984 272.266 895.984 272.672 896.187 272.875 896.594 273.078 896.797 273.281 897 273.484 897 273.688 897 273.891 897.203 274.094 897.406 274.094 897.406 274.094 897.609 274.297 897.609 274.094 897.812 274.094 898.219 273.891 898.422 274.094 898.828 274.297 899.234 274.297 899.641 274.297 899.844 274.297 900.047 273.891 900.25 273.688 900.25 273.688 900.453 273.688 900.453 273.891 900.656 274.094 900.859 274.5 901.062 274.5 901.266 274.703 901.266 274.703 901.469 274.297 901.062 273.891 900.656 273.078 900.453 273.281 900.047 273.891 899.641 273.484 899.031 273.078 899.031 273.078 899.437 272.672 899.641L272.672 898.219C272.875 898.219 273.078 898.016 273.281 898.016 273.484 897.812 273.688 897.609 273.484 897.406 273.281 897.203 273.078 897.203 272.875 897.203 272.266 897.406 271.656 897.203 271.047 896.797 270.234 896.187 269.219 895.781 268.406 895.781 268.203 895.781 268.203 895.781 268 895.578 267.594 895.172 267.391 895.172 266.985 895.781 267.391 895.781 267.391 896.391 267.797 896.391 267.797 896.391 268 896.594 268 896.797 268 896.797 267.797 897 267.797 897 267.391 897 267.188 897 266.781 896.797 266.578 896.594 266.172 896.594 265.969 896.594 265.766 896.797 265.766 897.203 265.766 897.406 265.766 897.609 265.969 897.609 266.172 897.609 266.578 897.812 266.985 898.016 267.594 898.016 268 898.016 268.203 898.422 268.203 898.828 268 898.828 267.797 898.828 267.797 898.828 267.391 898.625 266.985 898.422 266.578 898.422 266.172 898.422 265.969 898.422 265.563 898.219 265.36 898.219 264.953 898.016 264.75 898.016 264.75 897.812 264.75 897.609 264.75 897.406 264.547 897 264.547 896.594 264.75 896.391 264.75 896.391 264.75 896.187 264.953 896.187 265.156 895.781 264.75 895.172 264.344 894.969 264.344 895.172 264.344 895.375 264.547 895.578 264.75 895.984 264.547 896.391 264.141 896.594 263.938 896.594 263.938 896.797 263.735 896.797 263.125 897 262.719 897.406 262.516 897.812 262.922 898.422 263.328 898.828 263.531 899.234 263.735 899.437 263.735 899.641 263.531 899.844 263.531 899.844 263.328 900.047 263.328 900.047 262.922 900.453 262.922 901.062 263.125 901.469 263.125 901.672 263.328 901.875 263.328 902.078 263.938 902.281 264.547 902.078 264.953 901.875 265.156 901.875 265.36 901.875 265.563 901.875 266.578 902.078 267.594 902.281 267.797 903.5 267.797 903.5 267.797 903.703 267.797 903.703 267.391 904.109 267.391 904.109 267.391 904.719L268.813 905.125 267.594 905.937 266.985 905.328C266.985 904.922 266.985 904.516 266.985 904.109 266.781 903.703 266.578 903.5 266.375 903.094 266.375 903.094 266.172 903.094 266.172 902.891 265.563 902.891 264.953 903.094 264.547 903.297 264.141 903.5 263.938 903.906 263.938 904.109 263.938 904.312 264.141 904.516 264.141 904.719 264.344 905.125 264.141 905.531 263.938 905.734 263.735 905.937 263.531 906.141 263.328 906.344 263.125 906.953 262.719 907.156 262.313 907.359 261.906 907.562 261.5 907.766 261.297 908.172 260.485 908.172 259.875 907.969 259.063 907.969 258.86 907.969 258.86 907.969 258.656 907.969 258.453 907.766 258.25 907.766 258.047 907.562 257.844 907.562 258.047 907.156 258.047 907.156 258.453 906.953 258.86 907.156 259.266 907.359 259.672 907.766 260.078 907.562 260.281 907.359 260.281 906.953 260.891 906.75 261.094 906.344 261.297 905.937 261.5 905.531 261.906 905.328 261.906 905.328 262.11 905.125 262.11 904.922 261.906 904.516 262.313 904.109 262.516 903.703 262.313 903.5 262.11 903.297 261.906 903.297 261.5 903.094 261.297 902.687 261.297 902.281 261.297 901.875 261.297 901.266 261.297 900.859 261.297 900.656 261.297 900.453 261.297 900.25 261.297 900.047 261.297 899.844 261.5 899.641 261.703 899.234 261.5 898.828 261.094 898.422 260.891 898.219 260.688 898.219 260.688 898.016 260.891 897.609 261.297 897 261.5 896.594 261.703 896.187 261.703 895.578 261.5 895.172 260.891 894.969 260.281 894.766 259.672 894.766 259.063 894.766 258.453 894.766 257.844 894.766 257.438 895.172 257.235 895.578 257.235 895.984 257.031 896.797 256.625 897.406 255.813 897.812 255.61 897.812 255.406 898.016 255.406 898.016 255.203 898.219 255.203 898.625 255.203 898.828L255.61 899.031 255.61 900.453 255.203 900.859 256.422 901.469C256.625 901.672 256.625 902.078 256.828 902.281 257.031 902.484 257.235 902.687 257.641 902.687 257.438 902.891 257.438 903.094 257.235 903.297 257.031 903.5 257.031 903.703 256.828 903.906 256.828 903.906 256.625 903.906 256.625 903.703 256.016 903.297 255.61 902.891 255 902.484 254.594 902.281 254.188 902.078 253.578 901.875 253.375 903.297 252.969 904.719 252.156 905.734 251.953 906.141 251.547 906.344 251.141 906.75 250.735 906.953 250.531 907.156 250.328 907.359 249.719 908.172 249.516 909.391 249.922 910.406 250.125 912.641 249.719 915.078 248.703 917.109 248.297 918.125 247.688 919.344 247.078 920.359 246.672 921.172 246.266 921.984 245.656 922.797 245.047 923.406 244.641 924.219 244.438 925.031 244.438 925.437 244.438 925.844 244.641 926.047 244.844 926.453 245.25 926.656 245.656 926.859 245.656 926.859 245.656 926.859 245.656 926.859 245.453 927.266 245.453 927.672 245.453 928.281 245.453 928.687 245.656 929.094 245.656 929.297 245.656 929.703 245.656 929.906 245.656 930.312 245.656 930.516 245.656 930.719 245.656 930.922 245.453 931.531 244.641 931.531 244.031 931.531 243.422 931.531 242.813 931.531 242.203 931.531 241.594 931.531 241.188 931.734 240.781 931.937 239.766 932.75 238.953 933.766 238.75 934.984 238.344 936 238.141 937.219 237.938 938.437 238.141 938.437 238.547 938.437 238.75 938.437 239.156 938.437 239.36 938.641 239.36 939.047 239.36 939.453 239.36 939.656 239.156 940.062 239.156 940.266 239.156 940.469 239.156 940.672L238.547 940.672C238.344 940.672 238.141 940.672 237.938 940.672 237.735 940.672 237.328 940.875 237.328 941.078 237.125 941.281 237.328 941.484 237.328 941.891L236.516 941.891 236.516 942.094C236.719 942.297 236.922 942.297 236.922 942.5 237.125 942.703 237.125 942.906 237.328 943.109 237.531 943.719 238.141 944.125 238.75 944.328 238.75 944.328 238.953 944.328 238.953 944.531 238.953 944.734 238.953 944.937 238.953 945.141 238.75 945.344 238.953 945.75 239.156 945.953 239.36 945.344 239.969 945.141 240.375 945.344 240.375 945.344 240.375 945.344 240.375 945.344 240.578 945.953 240.985 946.359 241.391 946.766 240.781 947.578 239.969 947.172 239.36 947.172 239.36 947.375 239.156 947.375 239.156 947.578 239.156 947.984 239.156 947.984 239.563 948.187 239.766 948.187 239.969 948.187 239.969 948.391 239.969 948.594 239.766 948.797 239.969 949 240.172 949.203 240.172 949.406 240.375 949.406 240.375 949.812 240.375 950.422 240.172 950.828 240.172 951.234 240.375 951.641 240.172 952.047 239.563 952.25 239.156 952.25 238.547 952.453 237.735 952.656 236.922 952.453 236.11 951.844 235.906 951.641 235.5 951.437 235.094 951.234 234.891 951.234 234.688 951.031 234.485 950.828 234.281 950.219 234.281 949.609 234.485 949 234.688 948.797 234.688 948.391 234.891 948.187 234.891 947.781 235.297 947.375 235.703 947.172 235.297 946.969 234.891 946.562 234.688 946.156 234.485 945.75 234.281 945.547 234.078 945.344 233.875 944.937 233.469 944.734 233.266 944.328 232.86 944.328 232.453 944.328 232.25 944.328 231.641 944.125 231.031 943.922 230.422 943.516 229.61 943.109 228.797 942.906 227.985 942.703 226.563 942.297 224.938 942.297 223.516 942.297 223.719 942.5 224.125 942.703 224.328 942.906 224.531 943.109 224.938 943.312 225.344 943.516 225.953 943.719 226.36 944.125 226.563 944.734 226.563 944.734 226.563 944.937 226.766 944.937 227.172 945.141 227.578 945.141 227.578 945.75 227.172 945.75 226.766 945.953 226.36 945.953 225.953 946.156 225.547 946.156 225.141 946.359 224.938 946.359 224.938 946.359 224.735 946.359 224.125 946.359 223.313 946.359 222.703 946.359 222.297 946.359 221.891 946.359 221.485 946.156 221.078 946.156 220.875 945.75 220.469 945.953 220.469 945.953 220.266 945.75 220.063 945.75 219.86 945.547 219.656 945.547 219.453 945.547 219.453 945.547 219.25 945.547 219.25 945.547 219.25 946.156 218.438 946.562 217.625 946.562 216.813 946.562 216.203 946.969 215.594 947.375 215.188 947.781 214.781 947.781 214.375 947.578 214.172 947.578 213.969 947.578 213.969 947.578 213.969 947.578 213.969 947.578 213.969 947.578 213.969 947.578 213.969 947.578 213.969 947.578 213.766 947.578 213.36 947.781 213.156 947.781 213.156 947.781 213.156 947.781 213.156 947.984 212.953 948.391 212.547 948.594 212.141 948.594 211.531 948.594 210.922 948.594 210.516 948.594 210.313 948.594 210.11 948.594 209.906 948.594 209.906 949 209.703 949.203 209.703 949.406L210.313 949.609C210.313 950.219 210.922 950.625 210.11 951.031L210.922 951.437C210.922 952.047 211.328 952.656 211.735 952.656 212.344 952.859 212.75 953.062 213.156 953.469 213.36 953.875 214.172 953.672 214.375 953.266 214.375 953.062 214.578 953.062 214.578 952.859 215.188 952.859 215.797 953.062 216.203 953.469 216.406 953.672 217.016 953.875 217.219 953.672 217.625 953.672 218.031 953.469 218.438 953.062 218.641 952.656 219.047 952.656 219.453 952.859 219.453 952.859 219.656 952.859 219.656 952.859 220.063 952.859 220.266 952.453 220.672 952.656 220.469 953.469 220.266 954.078 220.469 954.891 220.469 955.094 220.469 955.5 220.266 955.703 220.063 955.906 220.063 956.109 219.86 956.516 219.656 957.125 219.25 957.734 219.047 958.547 218.844 959.156 218.641 959.562 218.235 959.766 218.844 960.578 219.453 961.391 219.86 962.203 220.266 963.219 220.672 964.234 220.672 965.453 220.875 965.859 221.078 966.266 221.485 966.469 221.688 966.672 221.688 967.078 221.891 967.281 221.891 967.687 222.297 967.891 222.5 968.094 223.313 968.703 223.922 969.516 223.922 970.531 223.922 971.344 224.328 972.359 225.141 972.766 225.75 972.969 226.156 973.578 226.36 974.187 226.563 974.797 226.969 975.406 227.375 975.812 227.985 976.422 228.188 977.031 228.188 977.844 228.188 978.047 228.188 978.453 228.188 978.656 228.391 979.469 228.594 980.078 228.797 980.891 228.797 981.297 229.203 981.703 229.61 981.5 229.61 981.5 229.61 981.5 229.61 981.5 230.016 981.5 230.219 981.297 230.625 981.094 231.031 980.687 231.641 980.484 232.25 980.484 232.453 980.484 232.656 980.484 232.86 980.281 233.266 980.078 233.875 979.875 234.281 979.875 234.485 979.875 234.485 979.875 234.688 979.672 235.094 979.266 235.703 978.859 236.313 978.859 236.922 978.656 237.328 978.453 237.938 978.25 238.141 978.25 238.344 978.047 238.344 977.844 238.344 977.234 238.75 977.031 239.36 976.828 240.172 976.422 240.985 976.422 241.797 976.219 241.797 975.203 242.61 975.203 243.219 975 243.219 974.187 244.031 973.984 244.438 973.781 244.438 973.375 244.641 972.969 244.641 972.562 244.641 972.156 245.047 972.156 245.25 972.156 245.656 971.75 245.86 971.344 246.063 971.141 246.266 970.937 246.469 970.531 246.672 970.125 246.469 969.922 246.469 969.922 246.266 969.719 245.86 969.109 245.047 968.5 244.235 968.5 243.422 968.297 242.813 967.484 242.813 966.672 242.813 966.469 242.813 966.469 242.813 966.266 242.813 966.062 242.813 966.062 242.61 965.859 242 966.469 241.391 967.078 240.781 967.687 240.578 968.094 240.172 968.094 239.766 968.094 239.156 968.094 238.547 968.094 237.938 968.094L237.328 967.687C237.531 966.469 237.531 966.062 237.125 965.656 237.125 965.859 236.922 966.062 236.922 966.266 236.922 966.469 236.922 966.672 236.719 966.875 236.516 966.469 236.11 966.062 236.11 965.453 236.11 965.047 235.906 964.641 235.5 964.437 234.891 964.031 234.485 963.422 234.281 962.609 234.078 962.203 233.875 961.797 233.672 961.391 233.875 961.187 233.875 960.984 233.875 960.781 233.875 960.578 234.281 960.375 234.485 960.375 234.688 960.375 234.891 960.172 235.297 960.375 235.5 960.578 235.906 960.375 236.11 960.578 236.719 961.187 237.125 962 237.531 962.812 237.531 963.016 237.938 963.422 238.141 963.422 238.547 963.422 238.953 963.625 239.156 964.031 239.156 964.234 239.36 964.234 239.563 964.234 240.172 964.641 240.781 964.641 241.391 964.844 241.594 964.844 241.594 964.844 241.594 964.844 242 964.641 242.406 964.437 242.813 964.234 243.422 964.031 243.828 964.031 244.031 964.844 244.031 965.047 244.235 965.453 244.235 965.656 245.25 966.062 246.063 966.062 247.078 966.266 247.485 966.266 247.688 966.266 248.094 966.469 248.703 966.672 249.313 966.672 249.922 966.469 250.531 966.266 251.141 966.266 251.75 966.266 252.36 966.266 253.172 966.266 253.781 966.062 253.985 966.062 254.188 966.062 254.391 966.062 254.594 966.266 254.594 966.469 254.797 966.672 255 966.875 255.203 967.078 255.406 967.078 255.406 967.281 255.61 967.687 255.61 967.891 255.61 967.891 255.813 967.891 255.813 968.094 256.219 968.094 256.625 968.297 256.828 968.703 257.031 969.109 257.641 969.516 258.25 969.312 258.453 969.312 258.656 969.312 258.656 969.312 258.453 969.922 257.844 969.719 257.438 970.125 257.844 970.531 258.25 970.937 258.656 971.344 259.063 971.547 259.469 971.75 259.875 971.547 260.485 971.344 260.891 970.937 260.891 970.328 260.891 970.328 261.094 970.125 261.094 970.125 261.094 970.125 261.297 970.125 261.297 970.328 261.297 971.141 261.906 971.75 261.5 972.562 261.5 972.766 261.5 972.969 261.5 973.172 261.703 974.187 261.906 975.203 262.11 976.422 262.11 977.031 262.313 977.437 262.719 978.047 263.328 979.062 263.735 980.078 263.938 981.094 264.141 981.5 264.344 981.906 264.547 982.312 264.75 982.516 264.953 982.922 265.156 983.125 265.36 983.734 265.563 984.547 265.766 985.156 265.969 985.562 266.172 985.969 266.375 986.172 266.781 986.578 267.188 986.375 267.594 985.969 267.594 985.766 267.797 985.562 268 985.562 268.406 985.359 268.813 984.953 268.813 984.547 269.016 984.141 269.422 984.141 269.625 983.937 269.625 983.734 269.625 983.531 269.625 983.328 269.422 982.719 269.625 982.312 269.828 981.703 270.031 981.297 270.031 980.891 270.031 980.484 270.031 979.875 269.828 979.266 269.828 978.859 269.828 978.25 270.031 977.844 270.641 977.844 270.641 977.844 270.641 977.844 270.641 977.844 270.844 977.844 270.844 977.641 271.047 977.641 271.25 977.437 271.453 977.234 271.86 977.234 272.063 977.234 272.469 977.031 272.469 976.625 272.469 976.219 272.672 976.219 272.875 976.016 273.078 975.812 273.484 975.609 273.688 975.406 274.297 975 274.906 974.391 275.313 973.781 275.516 973.578 275.922 973.375 276.125 973.172 276.328 973.172 276.531 972.969 276.734 972.969 277.141 972.766 277.344 972.359 277.344 971.953 277.344 971.547 277.547 971.141 277.953 971.141 278.156 971.141 278.359 970.734 278.766 970.734 278.969 970.734 279.375 970.734 279.578 970.531 279.984 970.937 280.391 970.531 280.797 970.531 281.203 970.531 281.609 970.328 281.813 969.922 281.813 969.516 281.203 969.516 281.609 968.906 281.609 969.109 282.016 969.312 282.219 969.312 282.625 969.312 282.828 969.516 282.828 969.922 283.031 970.125 283.031 970.531 283.031 970.734 283.031 971.141 283.438 971.547 283.844 971.953 284.047 972.156 284.453 972.359 284.656 972.562 284.859 972.766 285.063 972.766 285.063 972.969 285.063 973.172 285.063 973.375 285.063 973.578 285.266 973.781 285.469 973.781 285.469 973.984 285.875 974.594 286.078 975.406 285.875 976.219 285.875 976.422 285.672 976.828 285.672 977.031 285.875 977.234 286.281 977.437 286.484 977.437 286.688 977.437 286.891 977.437 286.891 977.437 287.297 977.234 287.703 976.828 288.109 976.625 288.313 976.422 288.516 976.219 288.516 975.812 288.922 976.422 289.125 977.031 289.328 977.641 289.531 978.656 289.734 979.469 290.141 980.281 290.547 981.094 290.547 981.906 290.344 982.922 290.344 983.937 290.141 984.75 289.938 985.766 289.938 985.766 289.938 985.969 289.938 985.969 290.141 986.172 290.344 986.375 290.547 986.578 290.953 987.187 291.563 987.797 291.969 988.406 292.172 988.609 292.172 988.812 292.172 989.219 292.172 990.234 292.578 991.25 293.188 992.062 293.188 992.062 293.188 992.266 293.391 992.469 293.391 992.672 293.594 992.672 293.594 992.875 294.203 993.281 295.016 993.687 295.625 994.297 295.828 994.5 296.234 994.297 296.438 994.094 296.438 993.687 296.234 993.281 295.828 993.078 295.625 992.875 295.625 992.672 295.625 992.266 295.625 991.859 295.625 991.453 295.625 991.25 295.625 990.641 295.422 990.234 295.016 989.828 294.609 989.422 294 989.016 293.594 988.406 293.594 988.406 293.391 988.203 293.188 988.203 292.578 988.203 292.375 987.797 292.172 987.391 291.969 986.984 291.766 986.375 291.563 985.969 291.563 985.766 291.359 985.562 291.156 985.562 290.75 985.562 290.75 985.359 290.75 984.953 290.75 984.547 290.75 984.344 290.953 983.937 291.359 982.922 291.766 981.906 291.766 980.891 291.766 980.687 291.969 980.484 292.172 980.484 292.375 980.484 292.578 980.484 292.781 980.484 292.781 980.891 292.984 981.094 292.984 981.297 294.203 981.297 295.219 982.109 295.422 983.125 295.625 983.125 295.828 982.922 295.828 983.328 295.828 983.531 296.031 983.531 296.234 983.734 296.641 983.937 297.047 984.141 297.453 984.547 297.453 984.953 297.453 985.156 297.453 985.562 297.453 985.766 297.453 985.969 297.656 985.969 298.063 985.766 298.266 985.562 298.672 985.359 299.078 985.156 299.281 984.75 299.484 984.344 299.484 984.344 299.688 984.141 299.688 984.141 300.5 984.141 301.313 983.734 301.922 983.125 302.125 982.922 302.328 982.719 302.328 982.516 302.531 981.703 302.531 981.094 302.328 980.281 302.125 979.062 301.516 978.047 300.703 977.437 300.5 977.234 300.297 977.031 300.094 976.828 299.484 976.422 299.281 975.609 298.672 975 298.469 974.797 298.469 974.594 298.469 974.187 298.469 973.172 299.281 972.766 299.891 971.953 299.891 971.953 299.891 971.953 299.891 971.953 300.094 971.953 300.297 971.75 300.5 971.547 300.906 971.141 301.313 971.141 301.922 971.141 302.328 971.141 302.734 971.344 303.141 971.344 303.141 971.547 303.141 971.953 303.141 972.156 303.141 972.359 303.344 972.359 303.344 972.562 303.344 972.562 303.547 972.562 303.75 972.562 303.75 972.359 303.75 972.156 303.75 971.953 303.953 971.547 304.359 971.344 304.969 971.344 305.781 971.344 306.797 970.937 307.406 970.328 307.406 970.125 307.406 969.922 307.609 969.719L308.625 970.937C309.031 970.734 309.438 970.734 309.844 970.531 310.047 970.531 310.453 970.531 310.656 970.328 310.859 970.328 311.063 970.125 311.266 970.125 311.469 969.719 311.875 969.516 312.281 969.312 312.484 969.109 312.688 968.906 312.891 968.703 312.891 968.703 313.094 968.5 313.094 968.5 313.703 968.297 313.703 967.891 314.109 967.484 314.719 967.078 314.922 966.469 314.719 965.656 315.125 965.453 315.531 965.25 315.734 964.641 315.938 964.234 316.141 963.828 316.547 963.625 316.547 963.625 316.75 963.422 316.75 963.422 316.953 962.812 316.953 962.203 317.156 961.797 316.75 961.391 316.547 961.187 316.141 961.391 315.938 961.391 315.734 961.391 315.734 961.187L317.156 960.375C316.953 960.172 316.75 959.969 316.547 959.766L316.953 959.359C316.547 958.953 316.344 958.75 315.938 958.344 315.734 957.937 315.531 957.328 315.328 956.922 315.328 956.516 314.922 956.312 314.719 956.109 314.516 956.109 314.109 955.906 314.109 955.5 314.109 955.5 314.109 955.297 314.109 955.297 314.313 954.687 314.922 954.484 315.125 953.875 315.531 953.875 315.734 953.469 316.141 953.266 316.141 953.266 316.344 953.266 316.344 953.062 316.75 952.859 317.156 952.859 317.563 952.656 317.563 952.656 317.766 952.453 317.766 952.25 316.953 952.25 316.344 952.047 315.734 951.641 315.328 951.844 315.125 952.047 314.922 952.25 314.313 952.656 313.906 952.453 313.906 951.844 313.906 951.641 313.906 951.437 313.703 951.437 313.5 951.437 313.297 951.437 313.094 951.234 312.281 951.031 312.078 950.625 312.484 950.016 312.484 950.016 312.688 950.016 312.688 949.812 312.688 949.812 312.891 949.812 312.891 949.812 313.5 949.812 314.109 949.812 314.313 949.203 314.313 949 314.516 949 314.719 948.797 315.328 948.594 315.734 948.187 316.141 947.781 316.547 947.375 317.156 947.375 317.563 947.781 317.563 947.781 317.563 947.781 317.563 947.781 317.766 947.984 317.766 948.187 317.766 948.391 317.766 948.391 317.766 948.391 317.766 948.391 317.563 948.594 317.359 948.797 317.156 949.203 317.156 949.406 317.359 949.812 317.359 950.016 317.969 949.609 318.375 949.203 319.188 949 320 948.797 321.016 948.797 321.625 949.406L321.016 951.031C321.219 951.234 321.422 951.437 321.828 951.437 322.234 951.437 322.641 951.641 322.844 951.844 323.047 952.047 323.25 952.25 323.047 952.656 323.047 952.859 322.844 952.859 322.641 953.062L323.047 954.281C322.641 954.687 322.641 955.5 322.844 955.906 323.453 955.906 323.656 955.5 324.266 955.297 324.875 955.094 325.281 955.094 325.688 954.891 326.094 954.484 326.094 954.078 326.094 953.672 326.094 953.469 326.094 953.266 326.094 953.062 326.094 952.656 325.891 952.25 325.688 951.844 325.484 951.437 325.281 951.031 324.875 950.625 324.672 950.422 324.672 950.219 324.469 950.219 324.266 950.016 324.063 949.812 323.859 949.609 323.859 949.203 324.063 948.594 324.469 948.594 325.078 948.187 325.891 947.781 326.297 947.375 326.094 946.562 326.5 945.953 327.109 945.547 327.719 945.141 328.125 944.734 328.734 944.328 328.734 944.328 328.938 944.328 328.938 944.328 328.938 944.328 329.141 944.328 329.141 944.531 329.547 944.937 330.156 945.141 330.563 944.937 331.375 944.734 331.984 944.328 332.594 943.516 333.203 942.703 334.016 941.891 334.828 941.078 335.234 940.672 335.641 940.266 335.844 939.656 336.25 938.844 336.859 938.031 337.469 937.422 337.672 937.219 337.875 937.016 337.875 936.812 338.281 936 338.281 935.187 338.281 934.375 338.281 933.969 338.281 933.562 338.484 933.156 338.688 932.75 338.891 932.344 339.094 932.141 339.297 931.937 339.297 931.734 339.297 931.328 339.297 931.125 339.297 930.719 339.094 930.719 338.891 930.312 339.094 930.312 339.297 929.906 338.891 929.5 338.484 929.297 338.281 928.891 338.078 928.484 337.469 928.281 337.063 928.484 336.859 928.484 336.859 928.484 336.656 928.484L336.25 929.297C336.047 929.297 335.844 929.297 335.641 929.297 335.438 929.297 335.234 929.297 335.031 929.297 335.031 929.094 335.031 928.891 335.031 928.687 334.625 928.687 334.422 929.094 334.219 928.891L334.219 928.281C333.609 928.078 333 928.281 332.594 927.672 332.797 927.469 332.797 927.469 333 927.266 333.609 926.859 334.016 926.453 334.625 926.047 335.031 925.641 335.641 925.234 336.047 924.828 336.453 924.422 336.656 924.016 337.063 923.812 337.469 923.609 337.875 923.203 338.281 923 338.484 922.797 338.484 922.797 338.688 922.594 338.891 922.187 339.297 921.781 339.5 921.781 339.703 921.578 339.906 921.375 340.109 921.172 340.516 920.766 341.125 920.359 341.734 920.359 342.547 920.359 343.156 920.156 343.969 920.156 344.172 920.156 344.375 920.156 344.578 920.359 344.781 920.562 344.984 920.359 344.984 920.359 344.984 920.359 345.188 920.156 345.391 920.156 346 920.359 346.609 920.359 347.016 920.156 347.219 920.156 347.422 920.156 347.625 920.359 347.625 920.359 347.828 920.156 347.828 920.156 348.234 919.547 349.047 919.547 349.656 919.75 349.859 919.75 350.063 919.953 350.266 919.953 350.875 919.75 351.281 920.156 351.688 920.562L350.672 920.766C350.672 920.969 350.875 921.172 351.078 920.969 351.688 920.766 352.297 920.969 352.906 920.562 353.109 920.562 353.313 920.562 353.516 920.562 353.922 920.562 354.328 920.562 354.734 920.359 354.531 919.953 354.125 920.359 353.922 919.953 353.922 919.344 354.328 918.734 355.141 918.328 355.75 917.922 356.359 917.312 356.766 916.703 356.969 916.297 357.578 916.094 357.984 916.094 358.391 916.094 358.594 916.094 359 915.891 359.406 915.687 359.813 915.687 360.219 916.094 360.625 916.094 360.828 915.687 361.031 916.094 361.234 916.5 360.625 916.703 360.625 917.312L361.234 918.125C361.844 917.719 362.25 917.312 362.859 916.906 363.266 916.703 363.672 916.5 364.078 916.5 364.078 915.891 364.078 915.484 364.484 915.078 365.094 915.078 365.703 914.469 366.313 915.078 366.313 915.078 366.313 915.281 366.109 915.281 365.5 915.484 365.297 915.687 365.297 916.297 365.297 916.906 365.094 917.516 364.688 918.125 364.281 918.328 363.875 918.531 363.469 918.531 363.266 918.531 363.063 918.734 363.063 918.937 362.656 919.344 362.25 919.953 361.641 920.156 361.234 920.359 360.828 920.766 360.422 921.375 360.016 921.984 359.406 922.594 358.594 922.797 358.188 923 357.781 923.203 357.375 923.406 357.375 923.812 357.172 924.219 356.766 924.625 356.359 925.031 355.953 925.437 355.953 926.047 355.75 926.859 355.75 927.469 355.953 928.281 356.359 929.906 356.766 931.531 356.969 933.156 356.969 933.359 357.172 933.562 357.375 933.562 358.391 933.156 359.203 932.141 359.203 930.922L360.625 930.312C360.625 930.109 360.625 929.906 360.625 929.906 360.625 929.5 360.828 929.094 361.031 928.891 361.438 928.484 361.844 928.484 362.25 928.484 362.656 928.484 362.859 928.484 363.063 928.078 363.063 928.078 363.063 928.078 363.063 928.078 363.063 928.078 363.063 927.875 362.859 927.672 362.656 927.062 362.656 926.453 363.266 925.844 363.469 925.844 363.469 925.641 363.672 925.641 363.875 925.641 363.875 925.844 364.078 925.844 364.281 925.844 364.484 925.641 364.484 925.437 364.484 925.234 364.484 925.031 364.281 925.031 364.078 925.031 364.078 924.828 364.078 924.625 363.875 924.219 364.281 923.812 364.484 923.406 364.281 923.406 364.078 923.203 363.875 923.203 363.672 923.203 363.672 923.203 363.469 923.203 363.266 923.203 363.063 923 363.063 922.797 363.063 922.391 363.266 922.187 363.469 921.984 364.078 921.578 364.281 920.969 364.484 920.359 364.688 919.953 364.891 919.75 365.297 919.75 365.703 919.75 366.109 919.75 366.313 919.953 366.719 919.547 367.125 919.344 367.734 919.141L367.938 919.75C368.141 919.75 368.141 919.75 368.141 919.547 368.75 918.937 369.766 918.734 370.578 918.734 370.984 918.734 371.594 918.937 371.797 919.344 372 919.547 372 919.547 372.203 919.75 372.406 919.141 372.813 918.734 373.422 918.531 374.031 918.328 374.438 917.922 375.047 917.516 375.453 917.312 375.859 916.906 376.266 916.703 377.281 916.297 378.297 916.094 379.109 915.687 379.922 915.281 380.734 915.281 381.547 915.484 381.953 915.687 382.359 915.484 382.563 915.281 382.563 915.281 382.563 915.281 382.563 915.078 382.563 915.078 382.563 914.875 382.563 914.875 382.359 914.672 382.359 914.266 381.953 913.859 381.75 913.656 381.75 913.047 381.547 912.641 381.547 912.437 381.344 912.234 381.141 912.234 380.531 912.234 380.328 911.828 380.125 911.422 379.313 911.625 379.313 911.625 379.109 911.219 379.516 911.016 380.125 911.016 380.531 911.219 380.938 911.422 381.547 911.422 381.953 911.219 382.156 911.219 382.563 911.016 382.766 910.812L382.766 910C383.172 909.797 383.375 909.594 383.375 909.187 382.969 908.578 382.969 908.578 383.172 908.172 383.578 907.766 384.188 907.766 384.594 907.969L384.391 908.578 384.797 909.391C385.203 909.391 385.609 909.391 386.016 909.391 386.625 909.187 387.438 909.594 387.641 910.203 387.844 910.609 388.047 910.812 388.453 910.812 388.859 910.812 389.266 911.016 389.672 911.422 389.875 911.625 390.078 911.625 390.281 911.625 390.484 911.625 390.688 911.828 390.891 911.828 391.094 911.828 391.297 911.625 391.5 911.625 391.297 911.422 391.094 911.422 391.094 911.219 391.094 911.016 391.297 911.016 391.297 910.812 391.5 910.609 391.5 910.609 391.703 910.406 391.703 910.203 391.703 910 391.703 909.797 391.703 909.594 391.5 909.391 391.5 909.187 391.703 909.187 392.109 909.391 392.313 909.391 392.516 909.391 392.719 909.187 392.922 909.187 393.125 909.187 393.531 909.187 393.531 908.781 393.734 908.578 393.938 908.375 394.141 908.375 393.328 907.562 392.719 907.156 392.109 906.75ZM303.75 927.875C303.75 928.078 303.75 928.484 303.547 928.687 303.344 929.297 303.141 929.906 302.531 930.312 301.922 930.719 301.313 931.125 300.703 931.531 300.297 931.734 299.891 931.937 299.688 932.344 299.688 932.547 299.484 932.547 299.484 932.547 298.875 932.75 298.469 932.953 297.859 932.953 297.656 932.953 297.453 932.75 297.25 932.547 297.656 932.547 297.859 932.344 298.063 932.344 298.672 932.344 299.078 931.937 299.484 931.531 299.688 931.328 299.891 931.125 300.094 931.125 300.297 930.922 300.5 930.922 300.5 930.719 300.703 930.312 301.109 930.109 301.313 929.703 302.328 928.891 302.938 927.875 303.344 926.656 303.344 926.453 303.547 926.453 303.75 926.25 303.953 926.25 303.953 926.25 304.156 926.25 304.156 926.25 304.359 926.453 304.359 926.453 303.953 927.062 303.75 927.469 303.75 927.875ZM343.766 896.391C343.359 896.391 343.359 896.391 342.75 896.594 342.953 896.187 343.156 895.781 343.563 895.984 344.172 896.187 344.578 896.187 345.188 896.187 344.781 896.187 344.578 896.187 344.172 896.391L343.766 896.391Z" fill="#333F50" fill-rule="nonzero" fill-opacity="1"/></g></g></g></g></g></svg>