<svg width="27" height="27" xmlns="http://www.w3.org/2000/svg" xmlns:xlink="http://www.w3.org/1999/xlink" xml:space="preserve" overflow="hidden"><g transform="translate(-249 -45)"><g><g><g><g><path d="M254.166 49.6458 253.645 49.6458 253.645 67.3542 271.346 67.3542 271.346 66.8333 254.166 66.8333 254.166 49.6458Z" fill="#000000" fill-rule="nonzero" fill-opacity="1"/><path d="M258.854 65.275 258.854 55.1161 255.729 55.1161 255.729 65.275ZM256.25 55.637 258.333 55.637 258.333 64.7542 256.25 64.7542Z" fill="#000000" fill-rule="nonzero" fill-opacity="1"/><path d="M263.021 65.275 263.021 49.6458 259.896 49.6458 259.896 65.275ZM260.417 50.1667 262.5 50.1667 262.5 64.7542 260.417 64.7542Z" fill="#000000" fill-rule="nonzero" fill-opacity="1"/><path d="M267.188 65.275 267.188 55.1161 264.062 55.1161 264.062 65.275ZM264.583 55.637 266.667 55.637 266.667 64.7542 264.583 64.7542Z" fill="#000000" fill-rule="nonzero" fill-opacity="1"/><path d="M268.229 65.275 271.354 65.275 271.354 59.5445 268.229 59.5445ZM268.75 60.0654 270.833 60.0654 270.833 64.7542 268.75 64.7542Z" fill="#000000" fill-rule="nonzero" fill-opacity="1"/></g></g></g></g></g></svg>