<svg width="42" height="40" xmlns="http://www.w3.org/2000/svg" xmlns:xlink="http://www.w3.org/1999/xlink" xml:space="preserve" overflow="hidden"><g transform="translate(-170 -44)"><g><g><g><g><path d="M203.083 76.9167 203.083 51.9167C203.083 49.4808 196.858 48.1667 191 48.1667 185.142 48.1667 178.917 49.4808 178.917 51.9167L178.917 76.9167C178.917 79.3525 185.142 80.6667 191 80.6667 196.858 80.6667 203.083 79.3525 203.083 76.9167ZM191 49C197.439 49 202.25 50.5417 202.25 51.9167 202.25 53.2917 197.439 54.8333 191 54.8333 184.561 54.8333 179.75 53.2917 179.75 51.9167 179.75 50.5417 184.561 49 191 49ZM179.75 53.3583C181.637 54.8667 186.43 55.6667 191 55.6667 195.57 55.6667 200.363 54.8667 202.25 53.3583L202.25 60.25C202.25 61.625 197.439 63.1667 191 63.1667 184.561 63.1667 179.75 61.625 179.75 60.25ZM179.75 61.6917C181.637 63.2 186.43 64 191 64 195.57 64 200.363 63.2 202.25 61.6917L202.25 68.5833C202.25 69.9583 197.439 71.5 191 71.5 184.561 71.5 179.75 69.9583 179.75 68.5833ZM179.75 76.9167 179.75 70.025C181.637 71.5333 186.43 72.3333 191 72.3333 195.57 72.3333 200.363 71.5333 202.25 70.025L202.25 76.9167C202.25 78.2917 197.439 79.8333 191 79.8333 184.561 79.8333 179.75 78.2917 179.75 76.9167Z" fill="#000000" fill-rule="nonzero" fill-opacity="1"/><path d="M200.167 59C200.167 59.4602 199.794 59.8333 199.333 59.8333 198.873 59.8333 198.5 59.4602 198.5 59 198.5 58.5398 198.873 58.1667 199.333 58.1667 199.794 58.1667 200.167 58.5398 200.167 59Z" fill="#000000" fill-rule="nonzero" fill-opacity="1"/><path d="M200.167 67.3333C200.167 67.7936 199.794 68.1667 199.333 68.1667 198.873 68.1667 198.5 67.7936 198.5 67.3333 198.5 66.8731 198.873 66.5 199.333 66.5 199.794 66.5 200.167 66.8731 200.167 67.3333Z" fill="#000000" fill-rule="nonzero" fill-opacity="1"/><path d="M200.167 75.6667C200.167 76.1269 199.794 76.5 199.333 76.5 198.873 76.5 198.5 76.1269 198.5 75.6667 198.5 75.2064 198.873 74.8333 199.333 74.8333 199.794 74.8333 200.167 75.2064 200.167 75.6667Z" fill="#000000" fill-rule="nonzero" fill-opacity="1"/></g></g></g></g></g></svg>