<svg width="198" height="197" xmlns="http://www.w3.org/2000/svg" xmlns:xlink="http://www.w3.org/1999/xlink" xml:space="preserve" overflow="hidden"><g transform="translate(-187 -1310)"><g><g><g><g><path d="M377.83 1356.42C377.601 1355.93 377.097 1355.61 376.55 1355.63L376.205 1355.63C374.789 1355.63 373.411 1356.09 372.284 1356.95 372.031 1357.19 371.725 1357.36 371.391 1357.46 370.842 1357.58 370.294 1357.85 369.725 1357.99 368.04 1358.68 366.193 1358.87 364.403 1358.54 363.732 1358.21 362.921 1358.45 362.534 1359.08 362.398 1359.36 362.074 1359.49 361.783 1359.39 361.505 1359.33 361.213 1359.39 360.991 1359.57 360.649 1359.8 360.259 1359.94 359.853 1359.98 358.445 1360.16 357.145 1360.83 356.177 1361.87 356.014 1362.01 355.791 1362.27 355.669 1362.25 354.795 1362.07 354.45 1362.84 353.861 1363.17L353.414 1364.69 352.439 1364.95C351.972 1365.26 352.439 1365.67 352.073 1365.97 351.708 1366.28 352.073 1366.72 352.073 1367.09 350.692 1366.93 350.042 1367.21 348.844 1368.57 349.079 1368.68 349.335 1368.75 349.595 1368.75 349.738 1368.75 349.595 1368.98 349.392 1368.94 349.558 1369.42 349.297 1369.96 348.808 1370.12 348.767 1370.14 348.724 1370.15 348.681 1370.15 348.048 1370.29 347.502 1370.69 347.178 1371.25 347.016 1371.54 346.609 1371.66 346.345 1371.86 346.081 1372.06 346.223 1372.06 346.163 1372.15L346.65 1373.1 345.736 1374.58C345.425 1374.56 345.113 1374.56 344.802 1374.58 344.298 1374.61 343.915 1375.05 343.947 1375.55 343.951 1375.6 343.958 1375.65 343.969 1375.7 344.001 1376.25 344.473 1376.67 345.021 1376.63 345.023 1376.63 345.024 1376.63 345.025 1376.63 345.37 1376.63 345.736 1376.39 346.061 1376.45 347.138 1376.59 347.767 1377.59 348.742 1377.95 348.742 1377.95 348.742 1377.95 348.742 1377.95L348.438 1379.03 350.469 1379.72C350.636 1379.76 350.81 1379.76 350.977 1379.72 352.232 1379.49 353.52 1379.49 354.775 1379.72 354.998 1379.72 355.263 1379.72 355.283 1379.4 354.816 1379.09 354.308 1378.79 353.841 1378.46 352.815 1377.75 352.051 1376.72 351.667 1375.54 351.141 1374.23 351.472 1372.73 352.5 1371.76 352.799 1371.37 353.064 1370.96 353.292 1370.52L352.5 1370.05C353.028 1370.09 353.557 1370.09 354.084 1370.05 354.409 1370.05 354.795 1369.83 354.673 1369.36 354.552 1368.9 354.673 1368.94 355.019 1368.94 355.628 1368.94 355.75 1368.45 356.055 1368.1 356.359 1367.76 356.238 1367.15 356.908 1367.03 357.327 1366.96 357.678 1366.67 357.822 1366.28 358.114 1365.51 358.801 1364.98 359.609 1364.87 360.269 1364.89 360.88 1364.53 361.173 1363.94 361.377 1363.43 361.722 1363.29 362.108 1363.05 363.784 1361.96 365.641 1361.18 367.592 1360.75 370.253 1360.22 372.792 1359.31 375.413 1358.72 376.097 1358.54 376.725 1358.19 377.241 1357.7 377.667 1357.42 378.033 1357.01 377.83 1356.42Z" fill="#333F50" fill-rule="nonzero" fill-opacity="1"/><path d="M231.824 1425.99C232.92 1425.59 232.92 1425.59 233.631 1426.75L232.961 1428.33C234.058 1428.94 235.094 1428.33 236.089 1428.33 235.886 1429.79 235.886 1429.79 237.145 1430.67 237.095 1431.01 237.028 1431.35 236.942 1431.68 236.833 1432.02 236.705 1432.35 236.556 1432.68L234.18 1432.88C234.342 1433.27 234.525 1433.61 234.667 1433.98 235.013 1434.57 234.814 1435.33 234.223 1435.67 234.176 1435.7 234.128 1435.72 234.078 1435.74 233.814 1435.91 233.53 1435.99 233.286 1436.15 233.111 1436.3 232.954 1436.47 232.819 1436.66 233.57 1436.82 234.2 1436.9 234.85 1437.08 235.615 1437.45 236.475 1437.56 237.308 1437.41 237.145 1438.12 236.617 1438.26 235.988 1438.24 235.521 1438.13 235.028 1438.23 234.647 1438.53 233.972 1439.1 233.401 1439.79 232.961 1440.56 233.805 1440.32 234.697 1440.32 235.541 1440.56 235.862 1439.75 236.74 1439.32 237.572 1439.56 237.974 1439.64 238.389 1439.64 238.791 1439.56 240.113 1439.29 241.463 1439.17 242.813 1439.2 243.731 1439.26 244.62 1438.86 245.189 1438.14L243.889 1437.61C244.076 1437.3 244.294 1437.01 244.539 1436.74 244.824 1436.45 245.209 1436.27 245.473 1435.97 245.911 1435.63 246.076 1435.04 245.88 1434.53 245.65 1434.03 245.164 1433.71 244.62 1433.69 244.392 1433.65 244.158 1433.65 243.93 1433.69 243.666 1433.69 243.422 1434 243.056 1433.69 243.235 1433.16 243.153 1432.57 242.833 1432.11 242.7 1431.85 242.591 1431.58 242.508 1431.3 242.212 1430.41 241.576 1429.68 240.741 1429.26 240.408 1429.04 240.141 1428.73 239.969 1428.37 239.772 1428.01 239.615 1427.63 239.502 1427.23 239.217 1426.25 238.35 1425.54 237.328 1425.47 237.064 1425.47 236.719 1425.63 236.536 1425.24 237.571 1423.98 238.388 1422.55 238.953 1421.02 237.867 1420.73 236.735 1420.66 235.622 1420.81 235.358 1420.81 235.074 1420.81 234.85 1420.81 234.718 1420.31 234.932 1419.77 235.378 1419.49 235.764 1419.19 236.292 1418.97 236.414 1418.28 235.195 1417.97 234.078 1418.58 232.961 1418.28 232.738 1418.74 232.595 1419.11 232.413 1419.47 232.23 1419.84 232.169 1420.04 231.945 1420.16 231.517 1420.33 231.305 1420.81 231.472 1421.24 231.486 1421.28 231.501 1421.31 231.519 1421.34 231.683 1421.72 231.683 1422.16 231.519 1422.54 231.519 1422.83 231.377 1423.11 231.295 1423.39 231.214 1423.68 231.092 1423.86 230.95 1424.19L232.006 1423.94C231.986 1424.69 231.905 1425.32 231.824 1425.99Z" fill="#333F50" fill-rule="nonzero" fill-opacity="1"/><path d="M265.156 1346.23 266.131 1345.68 266.538 1347.18C266.375 1347.51 265.847 1347.95 265.989 1348.2 266.131 1348.44 266.842 1348.62 267.167 1348.87 267.473 1349.14 267.765 1349.42 268.041 1349.72 268.881 1350.46 270.164 1350.39 270.908 1349.55 271.05 1349.39 271.165 1349.21 271.25 1349.01 271.25 1348.75 271.433 1348.48 271.514 1348.24 272.083 1348.24 272.55 1348.52 272.875 1347.97 272.875 1347.97 273.058 1347.97 273.159 1347.97L273.159 1348.93C274.155 1349.33 274.683 1348.44 275.455 1348.16L275.597 1349.7C274.907 1349.75 274.225 1349.88 273.566 1350.09 272.43 1350.72 271.147 1351.03 269.848 1351 269.848 1351.53 269.848 1351.91 270.356 1352.12 271.774 1351.89 273.206 1351.76 274.642 1351.73L275.597 1351.73 275.597 1351.91 274.683 1351.67C274.48 1351.85 274.297 1352.16 274.053 1352.2 273.551 1352.31 273.129 1352.65 272.916 1353.11L271.717 1353.11C271.352 1353.11 270.945 1352.69 270.58 1353.36 270.742 1353.58 270.864 1353.97 271.128 1354.11 272.113 1354.8 273.325 1355.1 274.52 1354.94 274.358 1355.35 274.033 1355.55 274.134 1355.9 274.602 1356.34 275.15 1356.93 275.983 1356.65 276.332 1356.04 276.625 1355.4 276.856 1354.74 277.078 1353.83 277.769 1353.12 278.664 1352.87 279.03 1352.65 278.827 1351.98 278.928 1351.59 279.03 1351.2 279.07 1351.02 279.213 1350.98 280.167 1350.7 280.066 1349.8 280.269 1349.15 280.777 1348.87 281.223 1348.58 281.691 1348.38 282.158 1348.18 282.625 1348.22 283.072 1348.05 283.519 1347.89 284.108 1348.18 284.616 1347.61L279.741 1345.78C279.741 1345.03 279.741 1344.34 278.806 1344.22 278.38 1344.22 278.319 1344.91 277.689 1344.64L277.791 1343.3C277.445 1343.12 277.039 1342.67 276.755 1342.75 275.963 1342.96 275.455 1342.27 274.723 1342.27L273.789 1343.42C273.964 1343.94 274.106 1344.47 274.216 1345.01 274.216 1345.56 274.866 1345.96 274.764 1346.61 273.688 1346.33 273.363 1345.48 272.936 1344.7 272.509 1343.93 272.245 1343.48 271.473 1343.42 270.58 1344.28 270.58 1344.28 270.316 1345.25L267.898 1344.13C268.305 1343.26 269.3 1343.97 269.788 1343.26 268.382 1342.91 266.909 1342.95 265.522 1343.36 265.177 1343.48 265.156 1343.65 265.055 1343.79 264.181 1344.74 264.181 1344.76 264.933 1345.82 264.852 1346.17 265.014 1346.17 265.156 1346.23ZM273.098 1353.23 274.277 1353.05C273.789 1353.58 273.423 1353.25 273.058 1353.23Z" fill="#333F50" fill-rule="nonzero" fill-opacity="1"/><path d="M230.097 1435.4C230.349 1434.92 230.527 1434.41 230.625 1433.88 230.625 1432.9 230.524 1431.84 230.463 1430.95L231.641 1429.75C231.513 1428.9 231.08 1428.12 230.422 1427.56L229 1427.78C228.452 1427.07 227.842 1427.78 227.294 1427.78 226.745 1427.78 226.359 1428.25 226.278 1429 226.197 1429.75 226.075 1430.14 225.263 1430.22 224.917 1430.24 224.572 1430.24 224.227 1430.22 223.577 1430.22 223.394 1430.4 223.597 1431.05 223.597 1431.3 223.759 1431.44 223.597 1431.68 223.454 1431.93 223.344 1432.2 223.272 1432.47L224.856 1433.1C224.531 1433.75 224.288 1434.34 223.963 1434.89 223.518 1435.41 223.168 1436 222.927 1436.64L224.775 1437.47C225.628 1437.2 226.451 1436.85 227.233 1436.41 228.146 1435.97 229.107 1435.63 230.097 1435.4Z" fill="#333F50" fill-rule="nonzero" fill-opacity="1"/><path d="M279.152 1342.47C279.152 1342.67 279.152 1342.98 279.152 1343.2 279.836 1343.7 280.706 1343.87 281.528 1343.67L284.331 1343.38C284.555 1343.38 284.819 1343.38 284.839 1343.77 284.433 1343.93 284.006 1344.15 283.58 1344.3 283.153 1344.44 282.605 1344.13 282.036 1344.42 282.901 1345.02 283.951 1345.3 285.002 1345.21 286.108 1345.05 287.238 1345.19 288.272 1345.62 289.028 1345.99 289.922 1345.93 290.628 1345.48 290.826 1345.34 291.06 1345.27 291.298 1345.27 292.227 1345.41 293.144 1344.96 293.594 1344.13 293.736 1343.87 294.183 1343.77 294.488 1343.61 294.792 1343.44 295.239 1343.24 295.584 1343.02 295.93 1342.79 295.788 1342.27 295.483 1342.12 295.279 1342.02 295.059 1341.95 294.833 1341.92 293.833 1341.86 292.84 1341.71 291.867 1341.47 291.021 1341.18 290.085 1341.31 289.348 1341.82 289.105 1342.02 288.597 1341.82 288.17 1341.92 288.193 1341.72 288.193 1341.51 288.17 1341.31 288.17 1341.17 288.17 1340.95 287.988 1340.88 287.84 1340.81 287.668 1340.81 287.52 1340.88 287.216 1341.29 286.952 1341.74 286.566 1342.37 286.204 1342.16 285.831 1341.98 285.448 1341.82 285.211 1341.67 284.936 1341.59 284.656 1341.6 284.125 1341.63 283.599 1341.47 283.173 1341.15 282.727 1340.86 282.259 1340.64 281.772 1340.36 281.772 1341.25 280.838 1341.41 280.533 1342 279.893 1341.71 279.167 1341.68 278.502 1341.9 278.745 1342.18 279.05 1342.31 279.152 1342.47Z" fill="#333F50" fill-rule="nonzero" fill-opacity="1"/><path d="M287.094 1352.99 287.581 1354.15C288.691 1353.79 289.653 1353.07 290.323 1352.12 289.215 1352.04 288.247 1351.34 287.825 1350.31L287.053 1350.31 286.241 1350.31C285.875 1348.97 285.57 1348.73 284.433 1348.89 284.05 1348.99 283.681 1349.14 283.336 1349.33 283.681 1350.09 283.681 1350.09 284.88 1350.47L284.27 1350.98C284.324 1351.1 284.392 1351.21 284.473 1351.3L284.9 1351.59C284.758 1352.4 284.148 1352.77 284.311 1353.5Z" fill="#333F50" fill-rule="nonzero" fill-opacity="1"/><path d="M338.545 1386.26C339.625 1386.31 340.633 1385.72 341.125 1384.76L340.109 1384.17C339.896 1384.07 339.671 1383.99 339.439 1383.95 338.729 1383.79 338.006 1384.14 337.692 1384.8 337.398 1385.22 337.504 1385.81 337.928 1386.1 338.109 1386.22 338.327 1386.28 338.545 1386.26Z" fill="#333F50" fill-rule="nonzero" fill-opacity="1"/><path d="M360.138 1382.93C360.272 1383.05 360.447 1383.11 360.625 1383.09 360.828 1383.09 361.133 1382.97 361.194 1382.83 361.24 1382.62 361.17 1382.39 361.011 1382.24 360.32 1381.73 359.569 1381.29 358.838 1380.82 358.724 1380.8 358.606 1380.8 358.492 1380.82 358.392 1380.85 358.296 1380.9 358.208 1380.96 357.893 1381.23 357.858 1381.71 358.128 1382.02 358.215 1382.12 358.326 1382.2 358.452 1382.24 359.059 1382.34 359.635 1382.58 360.138 1382.93Z" fill="#333F50" fill-rule="nonzero" fill-opacity="1"/><path d="M308.077 1341.7C307.244 1340.95 306.513 1341.35 305.822 1341.51 305.598 1341.51 305.233 1341.62 305.416 1342.1 306.321 1342.15 307.227 1342.01 308.077 1341.7Z" fill="#333F50" fill-rule="nonzero" fill-opacity="1"/><path d="M369.116 1384.27C368.77 1384.27 368.445 1384.05 368.1 1383.97 367.227 1383.8 366.373 1383.66 365.5 1383.54L362.92 1383.09 361.641 1384.07 362.9 1385.94C362.9 1386.1 362.9 1386.16 362.778 1386.2 362.487 1386.65 362.011 1386.95 361.478 1387.01 360.747 1387.01 360.889 1387.87 360.381 1388.01 360.11 1388.09 359.82 1388.09 359.548 1388.01 359.244 1387.87 359.223 1387.54 359.325 1387.24 359.427 1386.93 359.508 1386.87 359.569 1386.71 359.142 1386.26 358.756 1386.06 358.228 1386.26 357.945 1386.35 357.667 1386.45 357.395 1386.57 356.812 1386.94 356.184 1387.23 355.527 1387.44 354.77 1387.5 354.009 1387.5 353.252 1387.44 352.239 1387.33 351.264 1387.86 350.794 1388.76L349.595 1388.76C349.067 1388.76 348.559 1388.66 348.031 1388.58 348.031 1388.58 348.031 1388.4 348.031 1388.29L348.905 1387.87C348.886 1387.61 348.852 1387.35 348.803 1387.1 348.681 1386.55 348.438 1386.36 347.95 1386.57 347.558 1386.67 347.191 1386.86 346.873 1387.12 346.666 1387.44 346.508 1387.8 346.406 1388.17 345.123 1387.65 343.662 1387.79 342.506 1388.56 341.755 1389 340.922 1389.33 340.15 1389.72L337.509 1391 336.88 1392.93C336.341 1393.13 335.783 1393.27 335.214 1393.35 334.521 1393.52 333.788 1393.41 333.183 1393.03 332.594 1392.56 332.086 1392.03 331.517 1391.48 332.045 1390.1 333.386 1390.06 334.544 1389.74 334.544 1389.51 334.544 1389.31 334.544 1389.19 333.946 1388.3 332.954 1387.75 331.883 1387.73L329.283 1387.73C330.948 1389.09 329.588 1390.39 329.405 1391.65 330.908 1393.31 330.908 1393.86 329.405 1395.55 328.382 1394.99 327.254 1394.66 326.094 1394.57 325.391 1395.25 324.544 1395.77 323.616 1396.07 322.929 1396.39 322.287 1396.8 321.706 1397.29 321.408 1397.52 321.344 1397.94 321.564 1398.25 321.848 1398.61 322.214 1398.94 322.458 1399.32 322.597 1399.58 322.647 1399.87 322.6 1400.16 322.6 1400.46 322.234 1400.56 321.889 1400.54 321.544 1400.52 321.077 1400.54 320.67 1400.54 320.07 1400.34 319.451 1400.19 318.822 1400.12 317.928 1400.12 317.644 1399.4 316.994 1399.18L315.978 1398.86 315.206 1399.77C315.669 1400.77 316.731 1401.36 317.827 1401.21L317.969 1402.45C317.453 1402.89 316.752 1403.04 316.1 1402.86 315.295 1402.73 314.543 1402.38 313.927 1401.84 313.557 1401.59 313.132 1401.43 312.688 1401.38 312.078 1401.19 311.57 1400.89 311.57 1400.2 311.57 1399.51 311.022 1398.8 310.839 1398.17 311.57 1396.5 311.469 1396.13 309.945 1395.4 309.945 1395.4 309.823 1395.4 309.783 1395.4 308.93 1394.79 308.077 1394.18 307.264 1393.53 306.901 1393.31 306.788 1392.84 307.012 1392.47 307.032 1392.44 307.056 1392.41 307.081 1392.38 307.299 1392.43 307.505 1392.52 307.691 1392.64 308.144 1393.18 308.795 1393.52 309.498 1393.58 309.9 1393.66 310.294 1393.77 310.677 1393.92 311.794 1394.27 312.911 1394.61 314.048 1394.9 315.186 1395.18 315.775 1395.2 316.608 1395.46 318.43 1396.01 320.396 1395.76 322.031 1394.79 322.674 1394.39 323.256 1393.9 323.758 1393.33 324.091 1392.97 324.164 1392.45 323.941 1392.01 323.717 1391.54 323.555 1391.04 323.392 1390.59 322.751 1390.14 322.072 1389.74 321.361 1389.41 319.824 1388.78 318.343 1388.03 316.933 1387.16 316.029 1386.6 315.077 1386.14 314.089 1385.75 312.758 1385.41 311.398 1385.18 310.027 1385.06 309.823 1385.06 309.58 1385.19 309.356 1385.25 309.133 1385.31 308.93 1385.25 308.909 1385.25 308.503 1384.37 307.467 1384.86 306.878 1384.31 306.878 1384.31 306.675 1384.19 306.614 1384.09 306.592 1384 306.592 1383.9 306.614 1383.8 307 1383.8 307.427 1384.03 307.853 1383.54 307.378 1383.29 306.873 1383.1 306.35 1382.97L305.355 1383.54 301.658 1383.22C301.439 1382.99 301.201 1382.78 300.947 1382.59 300.494 1382.36 300.025 1382.16 299.545 1382 302.531 1382.18 302.531 1382.18 303.608 1381.06 302.744 1380.48 301.78 1380.06 300.764 1379.82 299.87 1379.5 299.891 1379.48 299.342 1380.21 299.22 1380.35 299.159 1380.51 299.038 1380.64 298.916 1380.76 298.53 1380.64 298.408 1380.35 298.384 1380.22 298.384 1380.08 298.408 1379.95 298.652 1379.64 298.875 1379.46 298.895 1379.28 298.916 1379.09 298.591 1378.81 298.306 1378.79L297.555 1378.79C297.206 1379.38 296.827 1379.96 296.417 1380.51 296.275 1380.7 295.97 1380.74 295.666 1380.88 295.544 1380.37 295.442 1380.01 295.32 1379.54 294.486 1380.14 293.764 1380.88 293.188 1381.73 293.005 1381.98 292.761 1382.16 292.456 1381.73 292.521 1381.34 292.63 1380.95 292.781 1380.58 293.045 1380.18 293.344 1379.8 293.675 1379.46L291.908 1379.19C291.502 1379.62 291.319 1380.37 290.709 1380.15 290.1 1379.93 289.998 1380.53 289.714 1380.78L288.983 1382.46C287.967 1381.75 286.952 1381.14 285.733 1381.75L286.464 1382.59C285.305 1382.54 284.176 1382.96 283.336 1383.76 283.217 1383.53 283.081 1383.31 282.93 1383.09 282.658 1383.21 282.371 1383.29 282.077 1383.32 281.772 1383.32 281.752 1382.93 281.609 1382.67 281.467 1382.4 281.02 1382.16 280.411 1382.67 280.938 1383.24 280.938 1384.12 280.411 1384.7 280.167 1384.86 279.923 1385 279.68 1384.7 279.436 1384.39 278.786 1384.48 278.339 1384.41 277.734 1384.29 277.127 1384.62 276.917 1385.21L277.486 1385.39 278.095 1385.51C277.913 1386.87 277.019 1387.14 276.064 1387.2L275.313 1386.49 274.48 1386.81 273.83 1385.75C273.818 1386.12 273.784 1386.49 273.728 1386.85 273.728 1387.16 273.505 1387.46 273.322 1387.93 273.994 1387.82 274.673 1387.76 275.353 1387.75 276.003 1387.75 276.694 1387.34 277.384 1387.75 276.856 1388.29 276.206 1387.89 275.638 1388.15L275.211 1389.45C274.195 1389.03 273.708 1389.82 273.18 1390.22 273.18 1390.33 273.18 1390.49 273.18 1390.55 272.448 1391.18 271.738 1391.83 270.945 1392.4 270.212 1392.91 269.63 1393.61 269.259 1394.43L269.666 1394.9C268.338 1395.72 267.507 1397.15 267.452 1398.71 266.802 1398.71 266.375 1398.86 266.172 1399.49 266.028 1399.89 265.851 1400.29 265.644 1400.66 265.012 1400.47 264.33 1400.7 263.938 1401.23 263.497 1401.7 263.083 1402.2 262.698 1402.72 262.595 1402.97 262.547 1403.24 262.556 1403.51 262.313 1403.51 261.988 1403.51 261.825 1403.77 261.578 1404.09 261.119 1404.15 260.799 1403.9 260.75 1403.87 260.705 1403.82 260.667 1403.77L259.448 1405.6C258.859 1405.6 258.291 1405.44 257.722 1405.4 257.478 1405.4 257.275 1405.5 257.377 1405.86L258.494 1406.19C257.925 1406.8 257.214 1406.43 256.645 1406.58 255.955 1407.04 255.508 1407.92 254.492 1407.81 254.322 1407.83 254.171 1407.93 254.086 1408.08 253.636 1408.55 253.427 1409.2 253.517 1409.85 253.619 1410.17 253.517 1410.72 253.659 1410.82 254.452 1411.25 253.294 1411.33 253.538 1411.73 253.748 1412.3 253.878 1412.88 253.923 1413.48L255.163 1413.93C254.979 1414.72 254.553 1415.43 253.944 1415.96 254.11 1416.01 254.28 1416.04 254.452 1416.06 254.756 1416.06 255.102 1416.06 255.163 1416.39 255.194 1416.66 255.13 1416.94 254.98 1417.18 254.773 1417.41 254.533 1417.62 254.269 1417.79 254.269 1418.01 254.269 1418.15 254.431 1418.23 255.298 1419.01 256.345 1419.57 257.478 1419.84 257.879 1419.92 258.294 1419.88 258.677 1419.74 259.596 1419.46 260.428 1418.95 261.094 1418.25 261.581 1417.77 262.008 1417.22 262.841 1417.22 263.084 1417.22 263.369 1416.83 263.592 1416.57 263.816 1416.3 263.592 1415.96 264.161 1415.94 264.52 1416.28 264.834 1416.66 265.095 1417.08 265.441 1417.91 265.319 1418.93 266.213 1419.53 266.355 1419.64 266.314 1419.98 266.395 1420.2 266.56 1420.82 266.778 1421.43 267.045 1422.01 267.492 1422.83 268.041 1423.58 268.569 1424.39 268.513 1424.6 268.424 1424.8 268.305 1424.98 268.163 1425.15 267.999 1425.31 267.817 1425.45 268.42 1425.97 268.828 1426.69 268.975 1427.48 269.402 1427.48 269.747 1427.48 270.072 1427.35 270.346 1427.3 270.618 1427.23 270.884 1427.15 271.057 1426.67 271.296 1426.22 271.595 1425.81 271.993 1425.36 272.587 1425.14 273.18 1425.22 273.579 1425.24 273.979 1425.24 274.378 1425.22 275.233 1424.14 275.704 1422.8 275.719 1421.42 275.838 1420.56 276.001 1419.71 276.206 1418.86 276.305 1418.59 276.481 1418.35 276.714 1418.17 276.992 1417.96 277.292 1417.78 277.608 1417.63 278.033 1417.45 278.435 1417.23 278.806 1416.95 279.111 1416.67 279.213 1416.16 279.497 1415.82 279.781 1415.47 280.188 1415.19 280.188 1414.54 279.628 1413.75 278.852 1413.14 277.953 1412.79 277.242 1412.61 277.039 1412 276.897 1411.33 276.592 1409.91 277.486 1408.73 277.547 1407.39 277.547 1407.25 277.75 1407.12 277.852 1407 278.144 1406.72 278.416 1406.41 278.664 1406.09 279.33 1405.11 280.291 1404.37 281.406 1403.98 282.893 1403.43 284.181 1402.46 285.103 1401.17 285.121 1401.11 285.121 1401.05 285.103 1400.99 285.103 1400.42 284.738 1399.87 284.92 1399.55 285.347 1398.71 285.53 1397.66 286.586 1397.21 286.87 1397.11 287.094 1396.78 287.358 1396.52L290.019 1396.52C290.848 1396.5 291.663 1396.73 292.355 1397.19 292.64 1397.38 292.843 1397.67 292.923 1398 292.975 1398.48 292.975 1398.95 292.923 1399.43 292.2 1399.53 291.544 1399.9 291.095 1400.48 290.261 1401.47 289.297 1402.35 288.231 1403.08 287.823 1403.4 287.443 1403.75 287.094 1404.14 286.891 1404.34 286.667 1404.69 286.464 1404.69 285.652 1404.69 285.652 1405.46 285.225 1405.8 284.798 1406.15 284.961 1406.96 285.103 1407.57 285.632 1408.83 285.704 1410.23 285.306 1411.53 285.063 1412.08 285.306 1412.47 285.997 1412.77L287.5 1413.56C287.5 1414.44 288.252 1413.99 288.597 1414.31 288.942 1414.64 289.653 1414.6 290.242 1414.44 291.42 1414.11 292.639 1413.89 293.817 1413.54 295.673 1413.15 297.553 1412.87 299.444 1412.71 299.626 1413.54 300.409 1414.09 301.252 1413.99 301.484 1413.98 301.715 1414.02 301.922 1414.13 302.166 1414.27 302.409 1414.48 302.227 1414.82 300.75 1414.67 299.278 1415.14 298.164 1416.12 297.857 1416.28 297.514 1416.36 297.169 1416.35 296.695 1416.32 296.225 1416.25 295.767 1416.12 293.683 1415.66 291.504 1416.02 289.673 1417.12 289.576 1417.72 289.661 1418.35 289.917 1418.9 290.242 1419.55 290.994 1419.19 291.319 1419.47L291.319 1421.89C291.314 1422.51 290.885 1423.04 290.283 1423.17 289.765 1423.36 289.188 1423.15 288.902 1422.68 288.495 1422.22 288.028 1421.77 287.663 1421.38 286.653 1421.35 285.727 1421.94 285.327 1422.87 284.769 1423.9 284.596 1425.09 284.839 1426.24 284.839 1426.7 285.042 1427.17 285.103 1427.64 285.222 1428.12 285.057 1428.64 284.677 1428.96L282.625 1428.96C282.625 1429.3 282.747 1429.67 282.625 1429.83 282.257 1430.37 281.63 1430.67 280.98 1430.63 280.166 1430.55 279.45 1430.06 279.091 1429.33 277.821 1429.31 276.572 1429.64 275.475 1430.28 274.96 1430.55 274.431 1430.78 273.891 1430.99 273.444 1431.15 272.977 1431.21 272.55 1431.42 272.13 1431.67 271.723 1431.94 271.331 1432.23L269.442 1430.77C268.831 1430.35 268.022 1430.35 267.411 1430.77 266.912 1431.06 266.38 1431.29 265.827 1431.46 265.504 1431.57 265.154 1431.57 264.831 1431.46 264.709 1431.46 264.709 1431.05 264.628 1430.79L263.023 1430.26C262.759 1429.79 262.475 1429.35 262.252 1428.88 261.983 1428.5 262.068 1427.98 262.441 1427.72 262.459 1427.7 262.477 1427.69 262.495 1427.68 262.508 1427.4 262.563 1427.13 262.658 1426.87 262.867 1426.46 263.127 1426.08 263.43 1425.73 263.772 1425.45 264.139 1425.2 264.527 1424.98 263.349 1424.13 263.328 1424.06 263.673 1422.95 263.725 1422.77 263.786 1422.61 263.856 1422.44 263.981 1422.16 263.859 1421.84 263.584 1421.71 263.58 1421.71 263.576 1421.71 263.572 1421.71 263.3 1421.66 263.02 1421.72 262.8 1421.89 262.415 1422.25 262.055 1422.64 261.724 1423.05 261.236 1423.02 260.748 1423.02 260.261 1423.05 260.119 1423.05 260.038 1423.37 259.916 1423.56L260.464 1423.78C260.728 1424.59 259.773 1424.33 259.509 1424.84 259.753 1425.69 259.205 1426.87 260.22 1427.58 260.301 1427.67 260.345 1427.78 260.342 1427.9 260.613 1429.14 260.803 1430.38 260.911 1431.64 260.667 1431.8 260.423 1431.93 260.2 1432.11L259.55 1432.76C258.717 1432.17 257.925 1432.03 257.194 1432.76 257.072 1432.9 256.767 1432.86 256.544 1432.9 255.958 1432.94 255.375 1433 254.797 1433.1 254.188 1433.23 254.086 1433.55 254.269 1434.3 254.303 1434.53 254.303 1434.76 254.269 1434.99L252.766 1434.42C252.506 1435.06 252.172 1435.66 251.77 1436.21 251.242 1436.78 251.913 1437.51 251.344 1438.08 249.683 1438.32 248.076 1438.84 246.591 1439.62 246.534 1439.93 246.493 1440.23 246.469 1440.54 246.49 1441.22 246.005 1441.82 245.331 1441.94 244.443 1442.13 243.693 1442.72 243.3 1443.54 242.281 1443.72 241.237 1443.43 240.456 1442.75 240.456 1442.75 240.07 1442.75 239.827 1442.75 240.131 1443.58 240.599 1444.23 240.172 1445.13 239.238 1445.13 238.263 1445.58 237.328 1444.9 237.167 1444.83 236.982 1444.83 236.82 1444.9L234.606 1445.39 234.952 1446.88C235.825 1447.16 236.658 1447.46 237.511 1447.67 238.279 1447.82 238.914 1448.36 239.197 1449.09 239.572 1450.01 240.244 1450.78 241.106 1451.28 241.316 1453.22 241.164 1455.17 240.659 1457.05 240.567 1457.84 239.85 1458.41 239.059 1458.32 238.982 1458.31 238.906 1458.29 238.831 1458.27 237.436 1458.11 236.032 1458.03 234.627 1458.03 232.819 1457.93 231.031 1457.64 229.203 1457.62 228.919 1457.62 228.655 1457.42 228.37 1457.38 228.144 1457.31 227.906 1457.31 227.68 1457.38 226.949 1457.8 226.217 1458.27 225.425 1458.78 225.567 1459.08 225.709 1459.39 225.831 1459.71 225.992 1460.02 226.082 1460.36 226.095 1460.71 226.026 1461.47 226.101 1462.25 226.319 1462.98 226.41 1463.44 226.41 1463.91 226.319 1464.36 226.166 1465.48 225.793 1466.55 225.222 1467.51 225.07 1467.87 224.981 1468.24 224.958 1468.63L226.136 1469.48 226.136 1472.47C226.939 1472.7 227.791 1472.7 228.594 1472.47 229.609 1472.16 230.178 1472.47 230.788 1473.48 230.909 1473.69 231.011 1473.89 231.113 1474.09 231.356 1474.54 231.822 1474.82 232.331 1474.83 233.525 1473.75 235.13 1473.26 236.719 1473.48 237.587 1473.47 238.452 1473.37 239.299 1473.18 239.643 1472.39 240.319 1471.78 241.147 1471.53 241.357 1471.43 241.533 1471.27 241.655 1471.07L243.219 1468.91C243.163 1468.78 243.095 1468.65 243.016 1468.53 242.542 1467.81 242.617 1466.86 243.199 1466.23 243.686 1465.58 244.234 1464.95 244.681 1464.2 244.953 1463.74 245.413 1463.42 245.941 1463.33 246.902 1463.05 247.818 1462.63 248.663 1462.09 249.223 1461.84 249.535 1461.23 249.414 1460.63 249.414 1460.46 249.414 1460.3 249.292 1460.12 249.089 1458.92 249.191 1458.7 250.206 1458.09L251.1 1457.64C251.698 1457.74 252.302 1457.8 252.908 1457.82 253.558 1457.82 253.944 1458.33 254.513 1458.47 255.126 1458.71 255.818 1458.57 256.3 1458.13 256.827 1457.66 257.432 1457.29 258.088 1457.03 258.691 1456.82 259.24 1456.47 259.692 1456.02 259.916 1455.77 260.322 1455.47 260.566 1455.53 261.358 1455.74 262.132 1456.01 262.881 1456.34 263.308 1456.52 263.409 1456.93 263.552 1457.34 263.812 1458.3 264.349 1459.17 265.095 1459.83 266.03 1460.55 266.863 1461.38 267.756 1462.13 268.044 1462.42 268.4 1462.63 268.792 1462.74 269.765 1462.96 270.671 1463.41 271.433 1464.06 271.961 1464.4 272.591 1464.61 272.875 1465.28 272.997 1465.48 273.183 1465.63 273.403 1465.7 274.784 1466.21 274.703 1467.51 275.048 1468.57L274.277 1469.85C274.094 1469.85 274.053 1469.99 273.992 1469.99 272.469 1470.56 270.821 1470.72 269.219 1470.44 268.894 1470.32 268.427 1470.56 268.061 1470.7 267.695 1470.84 267.959 1471.01 267.898 1471.19L271.961 1473.34C272.285 1473.52 272.693 1473.41 272.872 1473.08 272.932 1472.98 272.961 1472.85 272.956 1472.73 272.956 1472.49 272.855 1472.27 272.855 1472.04 272.842 1471.44 273.113 1470.87 273.586 1470.5L274.581 1470.5 275.231 1469.83C275.678 1469.32 275.698 1468.53 276.491 1468.2 276.795 1468.08 276.694 1467.55 276.491 1467.27 276.234 1467 275.955 1466.74 275.658 1466.52 275.678 1465.8 276.093 1465.16 276.734 1464.85 277.234 1464.98 277.722 1465.14 278.197 1465.34 278.575 1465.62 278.922 1465.94 279.233 1466.29 279.233 1465.83 279.355 1465.54 279.233 1465.44 278.839 1465.01 278.388 1464.63 277.892 1464.32 276.795 1463.67 275.638 1463.12 274.541 1462.56L274.541 1461.6C272.512 1461.8 270.653 1460.46 270.194 1458.47 270.039 1457.96 269.689 1457.53 269.219 1457.28L268.183 1456.6C267.599 1456.28 267.257 1455.65 267.309 1454.98 267.353 1454.3 267.353 1453.62 267.309 1452.95 268.264 1452.68 269.056 1451.95 270.133 1452.3 270.275 1452.95 269.727 1453.7 270.62 1454.09L271.575 1453.29C272.084 1453.38 272.483 1453.78 272.57 1454.29 272.922 1456 274.227 1457.35 275.922 1457.76 276.36 1457.92 276.776 1458.13 277.161 1458.39 277.831 1458.84 278.461 1459.39 279.192 1459.77 280.178 1460.31 281.043 1461.04 281.731 1461.93 281.731 1462.58 281.731 1463.23 281.528 1463.96 281.396 1464.54 281.564 1465.15 281.975 1465.58 282.218 1465.83 282.43 1466.11 282.605 1466.42 282.976 1467.15 283.556 1467.76 284.27 1468.16 284.392 1468.16 284.555 1468.41 284.534 1468.53 284.413 1469.32 284.961 1469.5 285.53 1469.73 285.53 1469.73 285.652 1469.91 285.713 1470.01L285.002 1470.9C285.616 1471.4 285.986 1472.14 286.017 1472.94 286.87 1472.51 287.439 1473.79 288.353 1473.08L288.069 1471.8C288.82 1471.53 288.638 1471.11 288.414 1470.68L290.283 1470.68 290.648 1469.91C290.527 1469.2 290.283 1468.91 289.714 1469.12 289.193 1469.31 288.605 1469.19 288.211 1468.79 288.211 1468.26 288.333 1467.7 288.414 1467.15 288.069 1466.44 287.277 1465.83 287.967 1464.83 288.253 1465 288.552 1465.14 288.861 1465.26 289.139 1465.34 289.436 1465.34 289.714 1465.26 289.877 1465.26 289.978 1464.89 290.019 1464.69 290.059 1464.49 290.364 1464.26 290.648 1464.18 291.957 1463.61 293.459 1463.67 294.711 1464.36 295.355 1464.78 296.188 1464.78 296.823 1464.34 297.683 1463.66 298.844 1463.48 299.87 1463.88 300.066 1463.68 300.292 1463.51 300.541 1463.39 299.992 1463.25 299.455 1463.07 298.936 1462.84 298.638 1462.66 298.393 1462.4 298.225 1462.09 297.92 1461.54 297.656 1460.95 297.372 1460.36 298.286 1458.33 298.286 1458.33 299.159 1457.82 298.962 1456.36 299.805 1454.95 301.191 1454.43L301.434 1452.99 303.872 1450.51C304.629 1450.25 305.45 1450.25 306.208 1450.51 306.33 1451.49 306.492 1451.67 307.305 1451.63 308.117 1451.59 308.584 1451.38 309.173 1451.97 308.991 1452.77 307.955 1452.58 307.589 1453.35L309.031 1454.21 309.275 1455.65C309.62 1455.65 309.986 1455.65 310.148 1455.65 310.788 1455.23 311.469 1454.88 312.18 1454.59 312.689 1454.32 313.274 1454.22 313.845 1454.31 314.252 1454.31 314.516 1454.15 314.394 1453.58L313.764 1453.58C312.849 1453.85 311.89 1453.32 311.623 1452.4 311.6 1452.32 311.582 1452.24 311.57 1452.16 311.473 1451.8 311.622 1451.43 311.936 1451.24 312.087 1451.15 312.243 1451.07 312.403 1451 314.755 1449.94 317.256 1449.26 319.817 1448.97 319.817 1448.97 319.98 1449.09 320.081 1449.15 319.476 1449.85 318.709 1450.38 317.847 1450.71L318.233 1451.57C317.481 1452.36 317.156 1453.6 315.877 1453.9 316.527 1454.82 316.527 1454.82 317.197 1455.16 317.867 1455.51 318.741 1455.93 319.472 1456.38 320.894 1456.38 322.295 1456.38 323.717 1456.56 326.603 1456.71 329.436 1457.4 332.066 1458.6 333.061 1459.17 334.108 1459.64 335.194 1460.02 335.756 1460.17 336.34 1460.23 336.92 1460.18 336.606 1459.76 336.41 1459.26 336.352 1458.74 336.498 1457.52 335.864 1456.34 334.767 1455.79L336.616 1452.87C337.827 1452.45 338.949 1451.81 339.927 1450.98 340.972 1450.33 342.09 1449.8 343.258 1449.41 343.593 1449.29 343.959 1449.29 344.294 1449.41L344.68 1449.58C344.785 1447.4 345.266 1445.27 346.102 1443.26 346.689 1441.29 347.91 1439.57 349.575 1438.36 351.353 1437.62 353.28 1437.31 355.202 1437.45 355.985 1437.52 356.774 1437.52 357.558 1437.45 358.167 1437.33 358.167 1436.74 358.167 1436.21 358.15 1435.13 358.021 1434.06 357.781 1433 357.506 1431.93 357.548 1430.8 357.903 1429.75 356.536 1429.31 355.641 1428 355.73 1426.56 356.078 1425.01 356.772 1423.55 357.761 1422.3 358.188 1421.65 358.614 1421 359.02 1420.27 359.427 1419.53 359.934 1418.56 360.381 1417.71 361.397 1415.8 362.413 1413.87 363.286 1411.9 364.204 1409.95 364.886 1407.91 365.317 1405.8 365.476 1404.78 365.564 1403.75 365.581 1402.72 365.546 1401.65 365.41 1400.59 365.175 1399.55 364.747 1398 365.103 1396.34 366.13 1395.1 366.618 1394.67 367.134 1394.28 367.673 1393.92 368.389 1393.32 369.031 1392.64 369.583 1391.89 370.873 1390.04 371.638 1387.88 371.797 1385.63 370.855 1385.28 369.955 1384.83 369.116 1384.27ZM262.8 1404.24C262.728 1404.05 262.647 1403.87 262.556 1403.69L264.588 1403.41C264.303 1404.18 263.592 1404.2 262.8 1404.24ZM264.831 1403.3C264.8 1403.07 264.8 1402.83 264.831 1402.59 264.831 1402.59 265.095 1402.47 265.238 1402.43 265.38 1402.39 265.4 1402.8 265.339 1402.86 265.174 1403.06 264.983 1403.25 264.77 1403.41ZM277.709 1415.86C277.896 1415.97 278.028 1416.15 278.075 1416.37 278.075 1416.57 277.628 1416.77 277.364 1416.63 277.1 1416.49 276.572 1416.16 276.064 1415.88 276.568 1415.66 277.139 1415.65 277.648 1415.86ZM261.663 1422.91C261.906 1422.87 261.784 1422.89 261.663 1422.91ZM288.333 1470.44C288.333 1470.44 288.333 1470.72 288.333 1470.88 287.765 1470.79 287.236 1470.54 286.809 1470.15 287.602 1469.77 287.967 1469.83 288.333 1470.44ZM307.081 1413.99C306.636 1413.94 306.186 1413.94 305.741 1413.99 305.361 1414.18 305.007 1414.42 304.684 1414.7 304.478 1414.51 304.288 1414.3 304.116 1414.07L302.084 1410.82C302.204 1410.59 302.354 1410.38 302.531 1410.19 302.961 1409.85 303.408 1409.53 303.872 1409.24 304.928 1409.85 305.903 1410.41 306.98 1411.1 307.386 1411.39 307.569 1411.94 307.914 1412.43Z" fill="#333F50" fill-rule="nonzero" fill-opacity="1"/><path d="M214.03 1398.1C213.42 1397.92 213.867 1396.97 213.116 1396.97 212.974 1396.26 212.303 1396.74 211.958 1396.46 211.688 1396.17 211.364 1395.93 211.003 1395.77 210.434 1395.63 210.495 1396.3 210.211 1396.54 209.927 1396.78 210.028 1396.72 209.927 1396.72 209.308 1396.81 208.701 1396.96 208.119 1397.19 207.834 1397.19 207.489 1396.99 207.184 1396.87L206.636 1397.31C205.295 1396.56 205.275 1396.56 204.28 1397.92L203.041 1397.07C203.041 1397.29 202.858 1397.39 202.858 1397.5 202.858 1398.33 202.858 1398.31 202.025 1398.59 201.743 1398.71 201.476 1398.87 201.233 1399.06 200.4 1398.67 200.481 1398.02 200.644 1397.37 200.197 1397.01 199.77 1396.7 199.384 1396.34 199.26 1396.16 199.164 1395.97 199.1 1395.77L198.125 1397.31C197.617 1397.48 196.724 1396.32 196.419 1397.7 196.419 1397.96 197.028 1397.88 196.805 1398.31 196.581 1398.73 195.83 1398.08 195.647 1398.92 196.099 1398.92 196.549 1398.86 196.988 1398.75 197.778 1398.5 198.636 1398.56 199.384 1398.92 199.384 1398.92 199.506 1399.08 199.567 1399.18L199.181 1399.75C199.181 1400.08 199.73 1399.93 199.567 1400.28L196.52 1400.87 196.52 1400.99 198.409 1401.13C198.917 1401.62 199.344 1401.94 199.689 1402.31 199.979 1402.56 200.014 1402.99 199.766 1403.28 199.686 1403.38 199.582 1403.45 199.466 1403.49 199.161 1403.67 198.816 1403.79 198.328 1404.02 198.511 1404.03 198.694 1404.03 198.877 1404.02 200.267 1403.64 201.75 1403.89 202.939 1404.71 204.53 1405.52 206.431 1405.42 207.936 1404.46 208.17 1404.28 208.441 1404.16 208.728 1404.1 209.778 1403.78 210.809 1403.4 211.816 1402.96 212.937 1402.69 213.959 1402.1 214.761 1401.27 215.147 1400.87 215.492 1400.42 215.817 1400.03L215.533 1398.73C215.048 1398.49 214.546 1398.28 214.03 1398.1Z" fill="#333F50" fill-rule="nonzero" fill-opacity="1"/></g></g></g></g></g></svg>