<svg width="202" height="197" xmlns="http://www.w3.org/2000/svg" xmlns:xlink="http://www.w3.org/1999/xlink" xml:space="preserve" overflow="hidden"><g transform="translate(-201 -1077)"><g><g><g><g><path d="M5.69875 101.042C7.88125 98.8793 6.74958 98.2124 5.69875 95.6864 5.10022 94.5264 5.02666 93.1656 5.49666 91.9479 5.77839 90.5064 5.96738 89.0484 6.0625 87.5829 7.35583 88.2295 6.83041 88.2295 7.7802 87.5829 8.42687 87.1181 8.7502 86.4512 9.4777 86.0066 10.2052 85.562 11.4985 84.6729 12.5292 83.9858 14.065 83.036 15.3987 83.4402 17.0356 82.9956 18.6725 82.551 19.9658 81.6416 21.5623 81.2577 23.0817 81.0806 24.5664 80.6789 25.9677 80.0654 27.1503 79.1216 28.1267 77.9455 28.8373 76.6097 29.8679 75.1547 29.0191 74.5889 29.6052 73.1743 29.8325 72.6178 30.2571 72.1645 30.7975 71.9012 32.0302 71.5375 32.111 72.3862 32.8183 73.3966 33.8489 72.4872 33.7479 71.881 33.5862 70.527 33.9702 70.527 35.6071 70.911 35.89 70.6887 36.1729 70.4664 35.89 68.6679 36.2133 68.2031 36.5366 67.7383 37.3046 67.5362 37.6481 67.0916 37.9916 66.647 38.0523 65.96 38.5373 65.5356 39.8682 64.6084 41.3529 63.9242 42.9225 63.5148 44.8221 63.5148 45.3677 66.2025 46.7418 66.546 47.7019 66.6572 48.6715 66.6572 49.6316 66.546 50.6016 66.2631 50.1975 66.1823 50.2581 65.3335 50.3187 64.4847 50.0156 64.606 50.2581 63.9189 50.5006 63.2318 51.2281 62.7064 51.5918 62.0597 52.3598 60.7866 52.7235 59.655 54.3402 59.0487 55.4516 58.6243 57.1087 59.2104 58.1393 58.4829 58.5233 58.2202 58.5233 57.6139 58.8264 57.3512 59.5135 56.7652 58.5435 56.947 59.5539 56.846 60.0417 56.9313 60.5128 57.0952 60.9483 57.331 62.8519 57.8981 64.7982 58.3103 66.7683 58.5637 67.3766 58.7826 67.9974 58.9648 68.6275 59.1093 69.1327 59.1093 69.3752 58.402 69.9208 58.786 71.0929 59.5943 68.0818 61.6758 67.9 62.1608 67.7181 62.6458 67.7181 63.6764 67.415 64.3433 67.1118 65.0102 66.3439 65.5154 66.6875 66.3641 67.3139 67.8191 70.2037 69.0518 71.5172 69.7995 72.8308 70.5472 74.5687 71.3152 76.0237 72.1437 77.4787 72.9722 78.9539 75.0941 80.8535 74.3464 84.1677 73.0531 83.9049 66.2631 83.9656 63.4945 84.0426 61.6257 84.3756 59.7762 84.9558 57.9979 85.3599 56.7045 85.7439 54.2189 87.1181 55.9771 88.0638 57.6113 88.7458 59.3844 89.1389 61.2312 89.2884 62.1048 89.4909 62.9687 89.7452 63.8179 89.7452 64.02 89.9068 65.0102 90.0887 65.1112 90.2706 65.2122 91.5437 64.7475 92.1095 64.8687 94.1304 65.3941 94.2718 67.7585 94.5952 69.3347 94.9185 70.911 96.1108 72.4872 96.616 74.2252 97.1212 75.9631 96.8585 77.4787 98.1518 78.671 99.4451 79.8633 101.87 80.4089 103.345 81.7224 104.365 82.8782 105.185 84.1964 105.77 85.6227 105.964 86.3184 106.221 86.995 106.538 87.6435 107.124 88.371 108.135 88.1487 108.923 88.6337 109.711 89.1187 109.529 89.341 109.893 90.4726 110.153 91.2826 110.662 91.9899 111.348 92.4935 112.992 93.7561 114.448 95.2463 115.672 96.9191 116.129 98.2423 116.281 99.6515 116.117 101.042 116.258 103.062 117.39 104.942 117.289 106.963 116.96 109.326 116.46 111.663 115.794 113.955 115.599 115.915 114.785 117.762 113.47 119.229 110.895 122.218 108.993 125.726 107.892 129.515 107.367 130.99 107.892 133.718 106.619 134.87 105.346 136.022 102.921 135.214 101.426 135.881 99.9301 136.548 99.1622 138.346 97.3839 138.589 95.6056 138.831 94.191 137.214 93.3422 135.739 91.6245 137.154 90.311 139.013 87.987 138.225 85.9747 137.753 83.991 137.166 82.0458 136.467 80.2582 135.675 79.1138 133.895 79.1358 131.94 78.9424 130.97 78.5275 130.057 77.9233 129.273 76.9937 127.777 77.0139 127.939 75.276 128.383 75.7202 126.915 75.2427 125.323 74.0635 124.342 73.4572 125.615 73.3158 127.09 71.5779 127.03 71.5779 126.383 72.366 126.605 72.467 126.1 72.498 125.319 72.5925 124.542 72.75 123.776 73.0329 122.988 74.7708 120.442 73.3158 120.078 72.7904 119.936 71.0929 122.301 70.5877 122.685 69.3986 123.682 68.3092 124.792 67.3341 125.999 66.5757 124.346 65.6837 122.758 64.6666 121.25 63.6158 120.078 63.0095 118.38 61.595 117.673 60.7884 117.417 59.9536 117.261 59.1093 117.208 57.8564 116.925 56.8662 116.339 55.6941 115.976 53.5852 115.507 51.3944 115.556 49.3083 116.117 47.3198 116.821 45.2963 117.421 43.2458 117.916 41.1421 118.059 39.0847 118.6 37.1833 119.512 36.3055 119.827 35.4961 120.307 34.7987 120.927 34.3541 121.391 34.1723 122.321 33.6469 122.705 32.3333 123.715 28.9585 123.048 27.4025 122.988 25.515 122.775 23.6104 123.195 21.9867 124.18 20.677 125.116 19.2834 125.927 17.8237 126.605 15.9242 127.312 8.44708 125.292 9.69999 122.644 9.92229 122.2 10.771 121.856 11.0742 121.331 11.4216 120.27 11.5455 119.148 11.4379 118.037 11.4379 115.895 10.185 114.5 9.61916 112.52 9.40701 110.671 8.97975 108.854 8.34604 107.104 7.2952 105.083 6.62833 103.062 5.69875 101.042Z" fill="#333F50" fill-rule="nonzero" fill-opacity="1" transform="matrix(1 0 0 1 205 1079)"/><path d="M62.6458 30.656C64.3029 32.3333 65.677 34.6977 67.8797 32.6769 68.4799 31.9336 69.1573 31.2562 69.9006 30.656 70.2643 30.4337 70.8302 30.4741 71.1939 30.2316 71.5577 29.9891 71.9012 29.1202 72.5479 28.8777 74.3464 28.2108 78.1456 30.4944 79.9643 31.0602 82.8339 31.9291 85.6429 32.9194 88.4518 33.9298 90.4726 34.6573 93.706 35.6879 95.0397 37.5471 95.9693 38.8202 95.3631 39.1637 96.7979 39.9519 97.7476 40.4773 99.7281 40.6389 100.435 41.5281 101.143 42.4173 101.021 42.4577 100.435 42.9831 99.8493 43.5085 98.657 42.9831 99.2835 44.5998 99.5866 45.4283 100.536 45.8931 101.163 46.4791 101.789 47.0652 102.375 48.5 103.184 49.2477 103.992 49.9954 104.275 49.6114 104.78 49.955 105.285 50.2985 105.972 51.1877 106.518 51.6323 107.064 52.0768 108.539 53.1479 108.539 53.6531 108.539 54.5827 107.832 53.7946 107.367 53.6531 105.286 53.4405 103.245 52.9371 101.304 52.1577 99.2835 51.0058 98.4751 48.8435 96.8989 47.3683 95.9833 46.6984 94.9474 46.2114 93.8474 45.9335 92.4531 45.3879 91.9479 44.9635 90.6949 45.9335 89.8418 46.5351 89.0437 47.2115 88.3104 47.9543 88.1891 48.3181 88.9368 49.0254 88.7954 49.3891 88.5327 50.1166 86.916 50.1166 86.431 50.1368 84.4728 50.5117 82.4554 49.8996 81.0354 48.5 80.3942 47.6844 79.4973 47.1078 78.4891 46.8631 77.0543 46.661 75.761 47.9341 74.4475 47.6108 73.1339 47.2875 73.6997 46.1356 74.6293 45.4485 75.9429 44.4987 76.4077 45.0241 75.8216 43.0437 75.1626 40.3746 73.1026 38.2758 70.4462 37.5673 68.8295 37.0419 67.0916 36.6579 65.5154 36.0112 64.8283 35.7283 62.1608 33.7277 61.4737 33.8894 60.5239 34.1521 60.726 35.9102 59.4529 34.9604 59.4529 34.9604 59.2104 33.6671 59.2104 33.6671 58.8319 33.1004 58.3604 32.6017 57.816 32.1919 58.8668 31.8483 59.9985 31.6664 60.9685 31.3835 61.9385 31.1006 62.4235 31.4037 62.6458 30.656Z" fill="#333F50" fill-rule="nonzero" fill-opacity="1" transform="matrix(1 0 0 1 205 1079)"/><path d="M172.518 146.975 174.943 146.591C175.125 148.167 175.267 148.612 174.438 149.926 173.61 151.239 172.599 151.946 171.932 153.139 171.407 153.422 171.225 153.785 171.387 154.25L171.508 154.998C171.063 155.624 171.063 155.503 169.972 155.867 168.865 156.119 167.888 156.765 167.224 157.686 165.789 159.868 165.688 162.212 163.526 164.071 160.899 166.314 158.878 164.395 156.028 163.849 154.937 163.647 154.189 163.849 154.25 162.455 154.311 161.06 155.665 159.989 156.271 159.242 158.265 157.455 160.463 155.908 162.818 154.634 164.083 153.892 165.257 153.003 166.314 151.987 166.989 150.955 167.61 149.89 168.174 148.794 168.551 148.4 168.902 147.981 169.224 147.541 169.487 147.096 169.528 146.126 169.871 145.783 171.063 144.712 171.771 146.086 172.518 146.975Z" fill="#333F50" fill-rule="nonzero" fill-opacity="1" transform="matrix(1 0 0 1 205 1079)"/><path d="M177.53 132.991 178.116 133.153C178.541 133.476 178.844 133.415 179.046 132.971 179.45 132.971 179.187 132.486 179.531 132.668 179.874 132.85 180.097 134.143 180.4 134.587 182.239 137.275 184.643 135.658 186.927 135.052 187.248 136.389 186.867 137.798 185.917 138.791 185.445 139.23 184.897 139.58 184.3 139.821 182.906 140.488 183.471 140.064 183.148 141.216 182.801 142.795 182.111 144.278 181.127 145.561 180.683 146.126 180.238 147.076 179.531 147.399 178.823 147.723 177.51 147.521 177.51 146.611 177.51 145.197 179.066 144.591 178.116 143.095 177.469 141.984 174.297 141.579 174.863 140.165 175.044 139.7 175.812 139.66 176.156 139.316 176.576 138.799 176.848 138.177 176.944 137.518 177.328 136.063 176.843 134.042 177.53 132.991Z" fill="#333F50" fill-rule="nonzero" fill-opacity="1" transform="matrix(1 0 0 1 205 1079)"/><path d="M92.9583 145.5C94.3931 145.5 95.3833 146.369 96.717 146.611 98.0508 146.854 99.6674 145.803 101.223 145.823 103.911 145.823 102.274 150.451 101.223 151.886 99.4856 154.452 96.9191 155.503 95.0599 152.553 94.5471 151.369 94.1083 150.154 93.7464 148.915 93.1806 147.723 92.5339 146.935 92.9583 145.5Z" fill="#333F50" fill-rule="nonzero" fill-opacity="1" transform="matrix(1 0 0 1 205 1079)"/><path d="M62.6458 30.5954C61.5748 29.4637 58.6041 30.7571 57.4118 29.8679 56.8258 29.4637 56.8864 28.7564 56.1589 28.3725 55.4314 27.9885 54.32 28.3725 53.6329 27.4025 56.5025 26.9781 57.432 24.9573 60.5441 26.0485 63.6562 27.1398 62.6458 28.1502 62.6458 30.5954Z" fill="#333F50" fill-rule="nonzero" fill-opacity="1" transform="matrix(1 0 0 1 205 1079)"/><path d="M103.305 39.9114C105.331 40.028 107.363 39.9264 109.367 39.6083 110.152 39.3806 110.853 38.9315 111.388 38.315 112.257 37.4662 112.257 37.6279 112.358 36.1729 115.187 36.8802 113.227 39.1839 111.57 40.2146 108.741 41.6696 105.871 42.2758 103.305 39.9114Z" fill="#333F50" fill-rule="nonzero" fill-opacity="1" transform="matrix(1 0 0 1 205 1079)"/><path d="M177.591 132.93C175.974 132.93 175.913 131.051 174.883 130.061 174.418 129.636 172.357 127.737 172.66 127.03 173.246 125.655 175.489 127.696 175.812 128.262 176.661 129.697 176.398 131.839 177.591 132.93Z" fill="#333F50" fill-rule="nonzero" fill-opacity="1" transform="matrix(1 0 0 1 205 1079)"/><path d="M146.227 80.8333C150.029 82.9939 153.444 85.7738 156.332 89.0581 153.401 88.0679 146.328 84.592 146.227 80.8333Z" fill="#333F50" fill-rule="nonzero" fill-opacity="1" transform="matrix(1 0 0 1 205 1079)"/><path d="M121.25 40.0529 123.675 42.8214C123.594 43.3266 120.502 41.3664 121.25 40.0529Z" fill="#333F50" fill-rule="nonzero" fill-opacity="1" transform="matrix(1 0 0 1 205 1079)"/><path d="M55.1485 56.8056C54.2189 57.4725 53.2691 57.7756 52.4406 56.6439 53.3134 56.2408 54.3299 56.3016 55.1485 56.8056Z" fill="#333F50" fill-rule="nonzero" fill-opacity="1" transform="matrix(1 0 0 1 205 1079)"/><path d="M63.252 43.3873C63.1332 42.1766 63.402 40.9594 64.02 39.9114 64.9495 41.3058 64.1614 42.0535 63.252 43.3873Z" fill="#333F50" fill-rule="nonzero" fill-opacity="1" transform="matrix(1 0 0 1 205 1079)"/><path d="M72.6085 129.333C71.9273 129.817 71.0557 129.945 70.2643 129.677 71.4364 128.545 71.6587 128.525 72.6085 129.333Z" fill="#333F50" fill-rule="nonzero" fill-opacity="1" transform="matrix(1 0 0 1 205 1079)"/><path d="M115.309 35.4454C116.016 35.89 116.137 36.3548 115.592 37.0419 115.083 36.7393 114.916 36.082 115.219 35.5737 115.246 35.5289 115.276 35.486 115.309 35.4454Z" fill="#333F50" fill-rule="nonzero" fill-opacity="1" transform="matrix(1 0 0 1 205 1079)"/></g></g></g></g></g></svg>