<svg width="156" height="142" xmlns="http://www.w3.org/2000/svg" xmlns:xlink="http://www.w3.org/1999/xlink" xml:space="preserve" overflow="hidden"><g transform="translate(-1191 -160)"><g><g><g><g><path d="M38.5 12.8333C44.7017 12.8333 49.7292 17.8608 49.7292 24.0625 49.7292 30.2642 44.7017 35.2917 38.5 35.2917 32.2983 35.2917 27.2708 30.2642 27.2708 24.0625 27.277 17.8634 32.3009 12.8395 38.5 12.8333M38.5 11.2292C31.4123 11.2292 25.6667 16.9748 25.6667 24.0625 25.6667 31.1502 31.4123 36.8958 38.5 36.8958 45.5877 36.8958 51.3333 31.1502 51.3333 24.0625 51.3333 16.9748 45.5877 11.2292 38.5 11.2292Z" fill="#000000" fill-rule="nonzero" fill-opacity="1" transform="matrix(1 0 0 1.07792 1270 191)"/><path d="M64.1667 65.7708 62.5625 65.7708 62.5625 53.3385C62.5243 51.6348 61.7217 50.0387 60.3768 48.9921 56.8591 46.2929 52.8315 44.3336 48.5365 43.2323 45.2846 42.2316 41.9024 41.718 38.5 41.7083 35.0987 41.7674 31.7205 42.2799 28.4547 43.2323 24.2045 44.4771 20.1947 46.4295 16.5935 49.0073 15.2622 50.0551 14.4709 51.6447 14.4375 53.3385L14.4375 65.7708 12.8333 65.7708 12.8333 53.3385C12.8731 51.1477 13.8971 49.0913 15.6214 47.7392 19.3843 45.0379 23.5772 42.9926 28.0224 41.6899 31.4288 40.6974 34.9525 40.1641 38.5 40.1042 42.0549 40.1129 45.589 40.6478 48.9872 41.6915 53.4865 42.8508 57.7042 44.9097 61.3858 47.744 63.1066 49.096 64.1278 51.1505 64.1667 53.3385Z" fill="#000000" fill-rule="nonzero" fill-opacity="1" transform="matrix(1 0 0 1.07792 1270 191)"/></g></g></g><g><g><g><path d="M64.5001 21.5C74.89 21.5 83.3127 29.9227 83.3127 40.3126 83.3127 50.7025 74.89 59.1251 64.5001 59.1251 54.1102 59.1251 45.6876 50.7025 45.6876 40.3126 45.6979 29.927 54.1145 21.5104 64.5001 21.5M64.5001 18.8125C52.6259 18.8125 43.0001 28.4384 43.0001 40.3126 43.0001 52.1868 52.6259 61.8126 64.5001 61.8126 76.3743 61.8126 86.0002 52.1868 86.0002 40.3126 86.0002 28.4384 76.3743 18.8125 64.5001 18.8125Z" fill="#000000" fill-rule="nonzero" fill-opacity="1" transform="matrix(1 0 0 1.06201 1196 164)"/><path d="M107.5 110.188 104.813 110.188 104.813 89.3596C104.749 86.5053 103.404 83.8312 101.151 82.0778 95.2577 77.5558 88.51 74.2734 81.3145 72.4283 75.8665 70.7518 70.2002 69.8914 64.5001 69.8751 58.8018 69.974 53.1422 70.8327 47.671 72.4283 40.5506 74.5138 33.8327 77.7846 27.7996 82.1033 25.5692 83.8588 24.2436 86.5218 24.1875 89.3596L24.1875 110.188 21.5 110.188 21.5 89.3596C21.5667 85.6892 23.2823 82.244 26.1709 79.9788 32.4751 75.4533 39.4995 72.0268 46.9467 69.8442 52.6535 68.1815 58.5568 67.288 64.5001 67.1876 70.4558 67.2023 76.3765 68.0984 82.0697 69.8469 89.6075 71.7892 96.6735 75.2385 102.841 79.9869 105.724 82.2519 107.435 85.6938 107.5 89.3596Z" fill="#000000" fill-rule="nonzero" fill-opacity="1" transform="matrix(1 0 0 1.06201 1196 164)"/></g></g></g></g></g></svg>