<svg width="25" height="24" xmlns="http://www.w3.org/2000/svg" xmlns:xlink="http://www.w3.org/1999/xlink" xml:space="preserve" overflow="hidden"><g transform="translate(-221 -72)"><g><g><g><g><path d="M11.5 2.39583C6.47191 2.39583 2.39583 6.47191 2.39583 11.5 2.39583 16.5281 6.47191 20.6042 11.5 20.6042 16.5281 20.6042 20.6042 16.5281 20.6042 11.5 20.6042 6.47191 16.5281 2.39583 11.5 2.39583ZM20.119 11.2604 11.7396 11.2604 11.7396 2.88099C16.3115 3.01324 19.9868 6.6885 20.119 11.2604ZM2.875 11.5C2.88085 6.83268 6.59501 3.01504 11.2604 2.88099L11.2604 11.5992 17.4225 17.7613C13.9682 21.0359 8.51335 20.8902 5.23873 17.4359 3.71939 15.8332 2.87327 13.7084 2.875 11.5ZM17.7613 17.4225 12.0831 11.7444C12.081 11.7422 12.0817 11.7403 12.0848 11.7403L20.119 11.7403C20.0615 13.8605 19.2217 15.8844 17.7613 17.4225Z" fill="#000000" fill-rule="nonzero" fill-opacity="1" transform="matrix(1.04348 0 0 1 222 73)"/></g></g></g></g></g></svg>