<svg width="53" height="37" xmlns="http://www.w3.org/2000/svg" xmlns:xlink="http://www.w3.org/1999/xlink" xml:space="preserve" overflow="hidden"><g transform="translate(-408 -48)"><g><path d="M32.6795 12.7188 17.2378 12.7188C17.2356 12.7188 17.2339 12.717 17.2339 12.7149 17.2339 12.7128 17.2356 12.711 17.2378 12.711L20.8102 11.9194C21.3694 11.8058 21.8707 11.4989 22.2262 11.0526 23.009 10.04 22.8228 8.5845 21.8102 7.80164 21.6973 7.71438 21.5766 7.63772 21.4496 7.57267 20.9362 7.3203 20.3507 7.25566 19.7946 7.38998L9.44772 9.69015C8.94452 9.84173 8.49994 10.144 8.17392 10.5562L5.01389 14.6458 2.3125 14.6458 2.3125 15.4167 5.20312 15.4167C5.3226 15.4167 5.43538 15.3613 5.50837 15.2667L8.78018 11.0326C9.00133 10.7519 9.30149 10.544 9.64197 10.4355L19.9866 8.13653C20.3396 8.05078 20.711 8.08423 21.043 8.23173 21.8186 8.59429 22.1534 9.5169 21.7908 10.2925 21.588 10.7262 21.1962 11.0419 20.7292 11.1478L13.599 12.728C13.3913 12.7744 13.2605 12.9803 13.3068 13.1881 13.3461 13.3641 13.502 13.4893 13.6823 13.4896L32.6914 13.4896C33.5373 13.4748 34.2459 14.1263 34.3021 14.9704 34.3443 15.8122 33.696 16.5289 32.8541 16.5711 32.8229 16.5726 32.7917 16.5733 32.7604 16.5729L22.3542 16.5729C22.1413 16.5829 21.9768 16.7636 21.9869 16.9764 21.9969 17.1893 22.1775 17.3538 22.3904 17.3438 22.7457 17.2856 23.1096 17.3719 23.401 17.5835 24.9947 18.9166 24.2049 20.8133 22.7716 21.1316 22.5638 21.1779 22.4329 21.3838 22.4791 21.5916 22.495 21.663 22.531 21.7285 22.5827 21.7803 22.9311 22.1339 23.1259 22.6105 23.125 23.1069 23.0951 24.1936 22.2026 25.0575 21.1154 25.0521L20.9667 25.0521C20.7538 25.0521 20.5813 25.2247 20.5813 25.4376 20.5814 25.5397 20.622 25.6377 20.6942 25.71 21.028 26.0527 21.2096 26.5155 21.1979 26.9938 21.1472 28.0659 20.262 28.9085 19.1887 28.9062L12.3333 28.9062C9.47701 28.9062 8.23674 27.9389 7.14254 27.0848 6.31081 26.4361 5.52495 25.8229 4.23958 25.8229L2.3125 25.8229 2.3125 26.5938 4.23958 26.5938C5.25978 26.5938 5.88146 27.0786 6.66771 27.693 7.8016 28.5771 9.21146 29.6771 12.3333 29.6771L19.1645 29.6771C20.689 29.6854 21.9378 28.4683 21.9688 26.9441 21.9661 26.5389 21.8694 26.14 21.6862 25.7786 23.1575 25.5022 24.1262 24.0854 23.8498 22.6141 23.7885 22.2879 23.6679 21.9758 23.4938 21.6932 24.8363 21.0767 25.4249 19.4887 24.8085 18.1463 24.6718 17.8486 24.4816 17.5785 24.2473 17.3495 24.2439 17.3461 24.245 17.3434 24.25 17.3434L32.7604 17.3434C34.0241 17.3572 35.0597 16.3439 35.0735 15.0803 35.0738 15.0531 35.0736 15.026 35.0729 14.9989 35.0269 13.7149 33.9642 12.7024 32.6795 12.7188Z" fill="#000000" fill-rule="nonzero" fill-opacity="1" transform="matrix(-1.83697e-16 -1 1.40541 -2.58169e-16 409 85.0001)"/></g></g></svg>