<svg width="42" height="43" xmlns="http://www.w3.org/2000/svg" xmlns:xlink="http://www.w3.org/1999/xlink" xml:space="preserve" overflow="hidden"><g transform="translate(-226 -45)"><g><g><g><g><path d="M29.7083 25.7917C28.7917 24.875 27.2917 24.9167 26.1667 25.7917L24.4167 24.0417C28.9583 19.125 28.6667 11.5 23.75 6.95833 18.8333 2.41667 11.25 2.75 6.70833 7.66667 2.16667 12.5833 2.5 20.2083 7.375 24.75 12.0417 29.0833 19.25 29.0417 23.875 24.6667L25.625 26.4167C25.25 26.875 25.0417 27.4583 24.9583 28.0417 24.875 28.75 25.125 29.4583 25.625 29.9583L31.5 35.8333C31.9583 36.25 32.5417 36.5 33.1667 36.5 34 36.5 34.75 36.1667 35.3333 35.5833 35.875 35.0833 36.2083 34.375 36.25 33.625 36.3333 32.9167 36.0833 32.2083 35.5833 31.7083L29.7083 25.7917ZM7.66667 23.7917C3.29167 19.4167 3.29167 12.2917 7.66667 7.875 12.0417 3.45833 19.1667 3.5 23.5833 7.875 28 12.25 27.9583 19.375 23.5833 23.7917 21.4583 25.9167 18.625 27.0833 15.625 27.0833 12.6667 27.0833 9.79167 25.9167 7.66667 23.7917ZM34.7083 34.9167C33.9167 35.7083 32.7083 35.8333 32.0417 35.1667L26.2083 29.3333C25.875 29 25.75 28.5417 25.7917 28.0833 25.8333 27.5417 26.0833 27.0417 26.5 26.6667 26.9167 26.25 27.5 26 28.0833 25.9583 28.5 25.9583 28.875 26.0833 29.1667 26.375L35 32.25C35.3333 32.5833 35.4583 33.0417 35.4167 33.5 35.3333 34.0417 35.125 34.5417 34.7083 34.9167 34.7083 34.9167 34.7083 34.9167 34.7083 34.9167Z" fill="#000000" fill-rule="nonzero" fill-opacity="1" transform="matrix(1 0 0 1.025 227 46)"/></g></g></g></g></g></svg>