<svg width="198" height="202" xmlns="http://www.w3.org/2000/svg" xmlns:xlink="http://www.w3.org/1999/xlink" xml:space="preserve" overflow="hidden"><g transform="translate(-187 -1764)"><g><g><g><g><path d="M151.267 55.5547C151.105 54.9453 150.962 54.3359 150.78 53.7468 150.312 52.3047 150.109 52.0812 148.545 52.1015 147.357 52.1028 146.207 51.6857 145.295 50.9234 144.746 50.5097 144.224 50.0618 143.731 49.5828 142.758 48.6836 141.664 47.9245 140.481 47.3281 139.717 46.8357 138.783 46.6814 137.901 46.9015 136.531 47.1942 135.102 47.0228 133.839 46.414 132.825 45.9871 131.689 45.9509 130.65 46.3125L129.045 46.9219C129.016 46.7608 129.016 46.5954 129.045 46.4344 129.25 45.8398 129.206 45.1882 128.923 44.6265 128.586 44.0919 127.991 43.7752 127.359 43.7937 127.177 43.7937 127.034 43.5297 126.852 43.4484 125.694 42.9812 124.536 42.4937 123.358 42.0875 122.263 41.4966 120.897 41.8947 120.291 42.9812 120.029 43.2871 119.751 43.5786 119.458 43.8547 119.344 43.4076 119.41 42.9337 119.641 42.5344 119.803 42.1078 119.884 41.6406 120.006 41.1937 119.347 40.7911 118.584 40.5933 117.812 40.625 117.345 40.625 116.837 40.7265 116.492 40.2797 115.598 40.655 114.638 40.8484 113.669 40.8484 113.987 40.1525 114.562 39.6067 115.273 39.325 115.395 39.325 115.619 39.4469 115.802 39.5078 115.566 39.065 115.649 38.5204 116.005 38.1672 116.497 37.6973 116.699 36.999 116.533 36.339 115.162 35.6464 114.281 34.2584 114.237 32.7234 114.128 31.5449 113.484 30.4817 112.491 29.839 111.914 29.4592 111.37 29.0312 110.866 28.5594 110.189 27.9695 109.402 27.5208 108.55 27.239 106.891 26.536 105.073 26.2974 103.289 26.5484 101.698 26.8137 100.074 26.3345 98.8812 25.2484 98.3047 24.7766 97.6937 24.3488 97.0531 23.9687 96.7689 22.8256 96.0368 21.8447 95.0218 21.2469 93.8569 20.6172 92.5929 20.1912 91.2843 19.9875 91.2843 19.3375 91.2843 18.7484 91.1625 17.9562 90.4072 17.6225 89.626 17.3507 88.8265 17.1437 87.9494 16.9799 87.282 16.263 87.1812 15.3766 85.816 15.0916 84.3943 15.41 83.2812 16.25 82.1155 17.1066 80.5114 17.0391 79.4218 16.0875 78.8876 15.6537 78.1805 15.4957 77.5125 15.6609 76.5011 15.8741 75.4566 15.8741 74.4453 15.6609 74.299 15.4996 74.1822 15.314 74.1 15.1125 73.879 14.1757 73.0309 13.5227 72.0687 13.5484 70.2438 13.4556 68.4494 14.0417 67.0312 15.1937 67.0312 15.1937 67.0312 15.3156 66.9093 15.5391 67.1734 16.0266 67.4984 16.6359 67.7828 17.2453 68.0375 17.6778 68.0375 18.2144 67.7828 18.6469 67.5 19.1313 66.8781 19.2949 66.3936 19.0121 66.3826 19.0057 66.3717 18.999 66.3609 18.9922L65.4875 17.3875 66.5031 15.4984C66.2797 14.7469 66.0765 14.1172 65.8734 13.4672 66.2782 13.1946 66.665 12.8961 67.0312 12.5734 67.2061 12.3812 67.2813 12.1182 67.2343 11.8625 67.132 11.5537 66.7986 11.3864 66.4897 11.4888 66.4521 11.5013 66.4157 11.5176 66.3812 11.5375 65.975 11.7609 65.6093 12.1062 65.2031 12.35 64.2336 12.9974 63.2147 13.5679 62.1562 14.0562 61.2413 14.3362 60.3033 14.5333 59.3531 14.6453 58.4315 14.7956 57.706 15.5129 57.5453 16.4328 57.4437 16.9812 57.3625 17.5297 57.2609 18.0984 56.8585 18.3598 56.472 18.6446 56.1031 18.9516 55.6968 19.3375 55.3922 19.8047 54.9656 20.15 54.539 20.4953 54.9656 21.1859 54.2547 21.2875 53.889 20.9422 53.4625 20.6375 53.0968 20.2922 52.9451 21.3866 52.6374 22.4538 52.1828 23.4609 52.962 24.3104 53.4028 25.4162 53.4218 26.5687 53.5133 27.5281 53.5133 28.4938 53.4218 29.4531 53.2557 30.1517 53.3883 30.8876 53.7875 31.4844 53.3721 32.241 52.9039 32.9674 52.3859 33.6578 52.0406 34.064 51.4312 34.2062 51.0047 34.5515 50.7841 34.7985 50.6179 35.0892 50.5172 35.4047 49.6843 37.314 49.7047 37.314 47.775 38.1062 47.5999 38.2182 47.4366 38.3475 47.2875 38.4922 47.229 39.3262 46.9405 40.1275 46.4547 40.8078 45.5952 41.8965 45.2473 43.3032 45.5 44.6672 45.5514 44.8463 45.5514 45.0364 45.5 45.2156 45.9875 46.3937 46.9422 45.7437 47.5312 46.0687 47.7786 46.853 47.4386 47.7027 46.7187 48.1 46.1094 48.5672 45.5203 49.0344 44.9515 49.5219 44.3641 49.948 44.1527 50.7258 44.4437 51.3906 44.5859 51.7765 44.6062 52.2844 44.8703 52.5484 45.4594 53.1375 44.8703 53.7265 44.9719 54.3562 45.2156 54.5187 45.5 54.7219 45.8047 54.8843 46.5152 55.1831 47.1325 55.6672 47.5922 56.2859 48.4453 57.6875 49.3594 59.0687 50.1312 60.5312 50.9031 61.9937 51.5125 63.5781 52.2844 65.0406 53.2797 66.9093 54.4172 68.7375 55.4531 70.6062 55.7326 70.9922 55.8947 71.4506 55.9203 71.9265 55.7474 72.89 56.1135 73.871 56.875 74.4859 57.7833 75.5403 58.8869 76.4095 60.125 77.0453 61.3843 77.614 62.6031 78.264 63.8218 78.9343 64.8917 79.4094 65.8899 80.0316 66.7875 80.7828 67.3883 81.4346 68.0259 82.0517 68.6968 82.6312 69.2024 83.009 69.5205 83.5863 69.5703 84.2156 69.6718 85.8 69.875 87.364 69.9359 88.9484 70.084 90.9441 69.7927 92.9477 69.0828 94.8187 69.0828 94.9406 68.9406 95.1031 69.0828 95.2046 69.489 96.2406 68.9203 97.2359 69.0828 98.2718 69.2292 99.7847 69.1055 101.312 68.7172 102.781 68.3627 104.746 67.8395 106.676 67.1531 108.55 66.9867 109.002 66.9867 109.499 67.1531 109.952 67.5159 110.58 67.5159 111.354 67.1531 111.983 66.5222 113.065 66.3818 114.365 66.7672 115.558 67.0507 116.979 67.0507 118.443 66.7672 119.864 66.4422 121.347 65.7718 122.708 65.5687 124.211 65.4974 124.486 65.3952 124.751 65.264 125.003 64.8375 126.019 64.4515 127.034 64.0047 128.05 63.5578 129.066 63.2328 130.406 61.9734 131.097 62.2578 132.641 62.5015 134.144 62.8265 135.626 62.9653 136.239 62.8556 136.882 62.5218 137.414 61.4918 139.043 61.2458 141.048 61.8515 142.878 60.3484 143.914 60.9984 145.6 60.4906 146.941 61.5468 147.144 61.9734 146.941 61.9734 146.067 61.9734 145.6 61.689 145.173 61.9734 144.645 62.1802 144.123 62.3234 143.577 62.4 143.02L63.0093 142.614 63.9031 142.086 64.6343 144.117C63.999 145.429 63.5805 146.835 63.3953 148.281 63.2712 149.769 62.9919 151.239 62.5625 152.669 62.3762 153.643 61.9661 154.561 61.364 155.35L60.2875 154.212 57.9719 156.244C58.6625 156.589 59.1093 157.097 59.9015 157.036 60.6937 156.975 60.8765 157.483 60.6734 158.133 60.4703 158.783 59.9625 159.25 60.1453 160.164L61.9125 160.164 61.9125 161.078 60.2062 160.773C60.2062 161.444 60.2062 161.992 60.2062 162.52 60.2062 163.048 60.2062 163.089 59.7593 163.089 59.4547 162.541 59.1703 161.992 58.8656 161.464 58.8656 161.464 58.6422 161.464 58.5406 161.322L57.6672 162.419 58.6218 163.455 58.3984 165.364C58.8047 165.526 59.1297 165.73 58.7843 166.258 59.089 166.461 59.414 166.705 59.6578 166.258 59.9015 165.811 59.8203 165.587 59.9625 165.283 60.2633 165.002 60.5897 164.751 60.9375 164.531L60.125 167.233C60.4347 167.875 60.6468 168.559 60.7547 169.264 60.7547 170.056 61.425 170.442 61.5468 171.133 61.7703 172.209 62.1156 172.473 63.3343 172.92 63.3343 173.692 62.2984 173.428 62.0547 174.119 62.1968 174.606 62.1968 175.398 62.5828 175.703 62.9687 176.008 63.4968 177.064 64.2078 177.511 64.7359 176.069 65.975 175.744 67.539 175.48 67.3156 175.947 67.2547 176.251 67.0922 176.353 66.6221 176.607 66.1332 176.824 65.6297 177.003 65.264 177.166 64.8172 177.166 64.675 177.633 65.325 177.958 65.9547 178.303 66.7062 178.587 67.4578 178.872 67.925 178.587 67.9656 177.795 67.9926 176.905 68.2144 176.031 68.6156 175.236 69.4986 174.755 70.4955 174.523 71.5 174.566 71.3781 173.997 71.5 173.651 72.1906 173.631 72.648 173.647 73.1032 173.701 73.5515 173.794 73.4835 173.391 73.3387 173.005 73.125 172.656 72.6076 171.831 72.2814 170.902 72.1703 169.934 71.8569 168.889 72.3588 167.773 73.3484 167.314 73.6472 167.134 73.9596 166.978 74.2828 166.847 75.0394 166.622 75.5436 165.908 75.5015 165.12 75.6275 163.926 76.3136 162.863 77.35 162.256 77.6343 162.053 77.9593 161.911 78.264 161.728 79.1515 161.172 79.7578 160.262 79.9296 159.23 80.0885 158.739 79.8192 158.212 79.3282 158.053 79.2597 158.031 79.1889 158.017 79.1171 158.011 78.0717 157.955 77.0981 157.461 76.4359 156.65 75.6031 155.837 75.5828 155.35 76.0906 154.233 76.4284 153.285 77.1743 152.539 78.1218 152.201L80.0312 151.612C80.1531 151.369 80.214 151.044 80.3968 150.881 81.0068 150.4 81.2504 149.588 81.0062 148.85 80.876 148.299 81.0458 147.72 81.4531 147.326 81.7375 147.001 82.0828 146.758 82.3671 146.473 82.6515 146.189 82.3671 146.23 82.3671 146.108L81.7375 145.417 82.4687 144.442C82.1084 144.093 81.8065 143.689 81.575 143.244 81.3993 142.505 81.3038 141.749 81.2906 140.989 81.3777 140.591 81.536 140.213 81.7578 139.872L84.1953 140.766C85.5194 141.208 86.9799 140.852 87.9531 139.851 87.5414 139.193 87.5414 138.357 87.9531 137.698 88.3159 137.07 88.3159 136.296 87.9531 135.667 87.9531 135.423 87.9531 135.058 87.9531 134.591 88.9614 135.038 90.0879 135.145 91.1625 134.895 93.1669 134.728 95.1405 134.297 97.0328 133.616 97.619 133.408 98.1528 133.076 98.5968 132.641 99.2631 131.846 99.8611 130.997 100.384 130.102 100.933 129.208 100.852 128.781 99.9781 128.07 99.4296 127.562 98.9828 127.055 99.3687 126.262 99.7546 125.47 99.3687 125.064 98.7796 124.698 98.1906 124.333 97.6625 124.109 97.175 123.744 96.918 123.528 96.7512 123.223 96.7078 122.891 96.7078 122.647 97.0125 122.383 97.2359 122.058 97.8122 122.734 98.644 123.138 99.5312 123.175 99.9375 123.243 100.325 123.395 100.669 123.622 101.347 123.982 102.122 124.118 102.883 124.008 103.222 123.918 103.579 123.918 103.919 124.008 105.219 124.419 106.634 123.922 107.392 122.789 108.266 121.814 108.977 120.758 109.931 119.783 110.127 119.586 110.268 119.341 110.337 119.072 110.622 118.158 111.292 117.406 111.272 116.35 111.309 115.86 111.553 115.41 111.942 115.111 112.561 114.557 113.035 113.859 113.323 113.08 113.75 112.186 114.319 112.186 115.355 113.08 115.598 112.552 115.842 112.084 116.066 111.597 116.514 110.416 117.272 109.378 118.259 108.591 119.209 107.976 119.8 106.938 119.844 105.808 119.844 105.198 119.742 104.569 119.742 103.939 119.742 101.339 119.478 100.933 121.875 98.9421 123.109 97.7244 124.602 96.801 126.242 96.2406 127.06 96.0637 127.82 95.6867 128.456 95.1437 129.223 94.449 130.251 94.1163 131.28 94.2296 132.529 94.2166 133.777 94.1352 135.017 93.9859 135.2 92.7468 136.337 92.4828 137.048 91.9546 137.242 91.0889 137.556 90.2545 137.983 89.4765 138.694 88.5218 139.161 87.4453 139.831 86.4906 140.194 85.983 140.373 85.3669 140.339 84.7437 140.277 83.8374 140.52 82.9363 141.03 82.1843 141.272 81.7781 141.437 81.3304 141.517 80.864 141.68 80.1937 141.7 79.4828 141.883 78.8328 142.123 77.7597 142.171 76.6524 142.025 75.5625 141.725 73.649 141.979 71.6897 142.756 69.9156 144.097 69.7937 144.117 69.9156 144.666 68.9406 144.977 68.4872 145.242 68.0042 145.458 67.4984 145.938 66.4769 146.63 65.5695 147.489 64.8375 148.281 64.0656 149.053 63.2531 149.805 62.4406 151.505 60.5806 152.065 57.9452 151.267 55.5547ZM63.9234 174.972C64.939 174.362 64.939 174.362 66.4422 174.728 65.6624 175.095 64.7798 175.181 63.9437 174.972Z" fill="#333F50" fill-rule="nonzero" fill-opacity="1" transform="matrix(1 0 0 1 190 1768)"/><path d="M71.4797 174.464C71.9095 174.653 72.3504 174.816 72.8 174.951 73.3772 174.994 73.827 175.47 73.8359 176.048 73.8355 176.312 73.9056 176.572 74.039 176.8 75.6719 179.063 78.0422 180.686 80.7421 181.391 80.7421 181.391 80.7421 181.391 80.7421 181.533 79.5705 182.032 78.2937 182.234 77.025 182.122L76.5172 182.934 74.9125 182.812 74.6281 181.797C73.8156 181.309 73.5922 182.691 72.8609 182.305L71.4797 183.259C70.5453 182.975 70.789 182.386 70.85 181.695L68.8187 181.858 67.1734 180.68C68.0062 180.192 68.7375 180.68 69.4484 180.558L71.4797 180.334C71.4797 179.806 70.9515 179.826 70.6875 179.623 69.7937 178.953 69.7937 178.669 70.789 177.978 71.0328 177.816 71.2359 177.592 71.7234 177.166 71.1484 177.199 70.5719 177.199 69.9968 177.166 69.7391 177.155 69.5002 177.028 69.3468 176.82 69.3265 176.563 69.4066 176.308 69.5703 176.109 69.8088 175.871 70.0669 175.654 70.3422 175.459L71.3781 174.484Z" fill="#333F50" fill-rule="nonzero" fill-opacity="1" transform="matrix(1 0 0 1 190 1768)"/><path d="M94.575 173.042C94.8187 172.108 95.7937 171.762 95.9968 170.848L97.0734 171.092C97.3781 171.092 97.7031 171.092 98.0484 171.092 98.0484 171.336 98.0484 171.641 98.0484 171.722 97.0007 172.41 95.8152 172.861 94.575 173.042Z" fill="#333F50" fill-rule="nonzero" fill-opacity="1" transform="matrix(1 0 0 1 190 1768)"/><path d="M64.6547 177.43C64.6547 177.937 65.0812 178.506 64.3703 179.034 63.7609 178.689 62.7859 179.034 62.4609 177.937 62.9078 177.105 63.8015 177.937 64.3297 177.45L64.6953 177.45Z" fill="#333F50" fill-rule="nonzero" fill-opacity="1" transform="matrix(1 0 0 1 190 1768)"/><path d="M94.3109 171.478C93.9859 172.555 93.0109 172.778 91.9546 173.245 92.2796 172.717 92.5437 172.351 92.7468 171.966 93.1937 171.133 93.1937 171.112 94.3109 171.478Z" fill="#333F50" fill-rule="nonzero" fill-opacity="1" transform="matrix(1 0 0 1 190 1768)"/><path d="M84.9671 144.645C84.9671 144.93 84.9671 145.133 84.825 145.316 84.6828 145.498 84.175 145.803 83.9921 145.6 83.8453 145.398 83.7606 145.158 83.7484 144.909 83.763 144.775 83.8284 144.652 83.9312 144.564 84.114 144.381 84.3375 144.117 84.5203 144.137 84.7031 144.158 84.8453 144.483 84.9671 144.645Z" fill="#333F50" fill-rule="nonzero" fill-opacity="1" transform="matrix(1 0 0 1 190 1768)"/><path d="M69.164 178.75 68.8187 179.623C68.3922 179.501 68.4734 179.217 68.5547 178.994 68.6359 178.77 68.7984 178.73 68.9203 178.587Z" fill="#333F50" fill-rule="nonzero" fill-opacity="1" transform="matrix(1 0 0 1 190 1768)"/><path d="M67.0312 179.705 65.8328 179.42C65.8328 178.811 66.2187 178.973 66.4828 179.156 66.6823 179.316 66.8539 179.509 66.9906 179.725Z" fill="#333F50" fill-rule="nonzero" fill-opacity="1" transform="matrix(1 0 0 1 190 1768)"/><path d="M73.5109 182.65C73.6531 182.995 73.7953 183.158 73.7953 183.32 73.7953 183.483 73.5312 183.544 73.3687 183.564 73.2062 183.584 73.125 183.422 73.125 183.381 73.2347 183.128 73.3636 182.884 73.5109 182.65Z" fill="#333F50" fill-rule="nonzero" fill-opacity="1" transform="matrix(1 0 0 1 190 1768)"/></g></g></g></g></g></svg>