<svg width="24" height="24" xmlns="http://www.w3.org/2000/svg" xmlns:xlink="http://www.w3.org/1999/xlink" xml:space="preserve" overflow="hidden"><g transform="translate(-222 -46)"><g><g><g><g><path d="M232.987 52.75 235.383 52.75 235.383 53.2292 232.987 53.2292Z" fill="#000000" fill-rule="nonzero" fill-opacity="1"/><path d="M232.987 54.6667 235.383 54.6667 235.383 55.1458 232.987 55.1458Z" fill="#000000" fill-rule="nonzero" fill-opacity="1"/><path d="M232.987 56.5833 235.383 56.5833 235.383 57.0625 232.987 57.0625Z" fill="#000000" fill-rule="nonzero" fill-opacity="1"/><path d="M232.987 58.5 235.383 58.5 235.383 58.9792 232.987 58.9792Z" fill="#000000" fill-rule="nonzero" fill-opacity="1"/><path d="M230.995 51.2277 228.56 65.3578C228.514 65.6225 228.692 65.8742 228.957 65.92 228.984 65.9247 229.012 65.9271 229.039 65.9271L229.998 65.9271 229.998 66.4062C229.998 66.9355 230.427 67.3646 230.956 67.3646 231.485 67.3646 231.914 66.9355 231.914 66.4062L231.914 65.9271 236.453 65.9271 236.453 66.4062C236.453 66.9355 236.882 67.3646 237.411 67.3646 237.941 67.3646 238.37 66.9355 238.37 66.4062L238.37 65.9271 239.328 65.9271C239.597 65.9269 239.815 65.7089 239.814 65.4402 239.814 65.4125 239.812 65.3849 239.807 65.3576L238.548 58.0378 238.138 58.4904 238.676 61.6146 234.663 61.6146 239.814 55.925 240.241 56.3107C240.318 56.3805 240.435 56.3795 240.511 56.3085L241.975 54.9403C242.056 54.8648 242.06 54.7384 241.984 54.6578 241.981 54.6539 241.977 54.65 241.973 54.6463L241.422 54.1487 242.386 53.083C242.473 52.9827 242.461 52.8314 242.361 52.7452 242.264 52.6621 242.119 52.6693 242.031 52.7615L241.067 53.8281 240.517 53.3305C240.435 53.2566 240.309 53.263 240.235 53.3449 240.232 53.3489 240.228 53.3531 240.225 53.3573L239.008 54.9491C238.945 55.0315 238.955 55.1486 239.032 55.2184L239.459 55.6034 234.017 61.6146 229.692 61.6146 231.441 51.4601C232.973 49.988 235.394 49.988 236.927 51.4601L237.827 56.6909 238.238 56.2388 237.375 51.2277 237.321 51.1738C235.588 49.4449 232.783 49.4449 231.05 51.1738ZM240.421 53.8887 241.425 54.7977 240.371 55.7829 239.544 55.0349ZM231.437 66.4062C231.437 66.6709 231.222 66.8854 230.958 66.8854 230.693 66.8854 230.479 66.6709 230.479 66.4062L230.479 65.9271 231.437 65.9271ZM237.891 66.4062C237.891 66.6709 237.676 66.8854 237.411 66.8854 237.147 66.8854 236.932 66.6709 236.932 66.4062L236.932 65.9271 237.891 65.9271ZM238.758 62.0938 239.335 65.4453C239.334 65.4471 239.332 65.4481 239.329 65.4479L229.032 65.439 229.609 62.0938Z" fill="#000000" fill-rule="nonzero" fill-opacity="1"/></g></g></g></g></g></svg>