<svg width="43" height="40" xmlns="http://www.w3.org/2000/svg" xmlns:xlink="http://www.w3.org/1999/xlink" xml:space="preserve" overflow="hidden"><g transform="translate(-169 -44)"><g><g><g><g><path d="M32.6667 4.58333C31.3594 6.25529 29.408 7.299 27.2917 7.45833 28.7381 9.02083 29.4371 11.1331 29.2083 13.25 30.4913 11.5494 32.4566 10.4982 34.5833 10.375 33.1369 8.8125 32.4379 6.70025 32.6667 4.58333ZM33.0542 9.77C31.9383 10.0467 30.8943 10.5581 29.9917 11.27 29.8288 10.1241 29.4239 9.026 28.8037 8.04875 29.9221 7.76287 30.9697 7.24988 31.8812 6.54167 32.0407 7.687 32.4419 8.78533 33.0583 9.76375 33.06 9.76567 33.0598 9.76854 33.0579 9.77021 33.0573 9.77075 33.0566 9.77108 33.0558 9.77125Z" fill="#000000" fill-rule="nonzero" fill-opacity="1" transform="matrix(1.025 0 0 1 170 44)"/><path d="M15.625 16.0879C17.1926 14.0809 19.5421 12.8379 22.0833 12.6712 20.4167 10.9629 19.5833 8.46292 19.7917 5.75458 18.2241 7.76171 15.8746 9.00467 13.3333 9.17125 15 10.8779 15.8333 13.4204 15.625 16.0879ZM14.9108 9.80208C16.4169 9.45208 17.8172 8.74608 18.9942 7.74333 19.1489 9.27508 19.6684 10.7474 20.5092 12.0371 19.0041 12.3872 17.6048 13.0927 16.4283 14.0946 16.273 12.563 15.7527 11.091 14.9108 9.80208Z" fill="#000000" fill-rule="nonzero" fill-opacity="1" transform="matrix(1.025 0 0 1 170 44)"/><path d="M32.3333 16.3379C31.4151 17.5179 30.034 18.2464 28.5417 18.3379 29.5481 19.4466 30.0332 20.9323 29.875 22.4212 30.7932 21.2412 32.1743 20.5127 33.6667 20.4212 32.6602 19.3125 32.1751 17.8269 32.3333 16.3379ZM30.6129 20.6108C30.4872 20.0199 30.2732 19.4513 29.9779 18.9242 30.5537 18.7485 31.0999 18.4876 31.5983 18.15 31.7242 18.7409 31.9383 19.3095 32.2333 19.8367 31.6576 20.0124 31.1114 20.2733 30.6129 20.6108Z" fill="#000000" fill-rule="nonzero" fill-opacity="1" transform="matrix(1.025 0 0 1 170 44)"/><path d="M5.07125 33.4046 7.42875 35.7617 27.4808 15.7083 25.125 13.3487ZM7.42833 34.5833 6.25 33.4046 21.1804 18.4708 22.3596 19.65ZM22.9487 19.0604 21.7696 17.8817 25.1233 14.5275 26.3021 15.7083Z" fill="#000000" fill-rule="nonzero" fill-opacity="1" transform="matrix(1.025 0 0 1 170 44)"/></g></g></g></g></g></svg>